STARTFONT 2.3
FONT -FontForge-Hanalei-Book-R-Normal--24-240-72-72-P-121-ISO10646-1
SIZE 24 72 72  2
FONTBOUNDINGBOX 31 32 -1 -7
COMMENT "Generated by fontforge, http://fontforge.sourceforge.net"
COMMENT "Copyright (c) 2012 by Brian J. Bonislawsky DBA Astigmatic (AOETI) (astigma@astigmatic.com), with ReservedFont Name "Hanalei""
STARTPROPERTIES 40
FOUNDRY "FontForge"
FAMILY_NAME "Hanalei"
WEIGHT_NAME "Book"
SLANT "R"
SETWIDTH_NAME "Normal"
ADD_STYLE_NAME ""
PIXEL_SIZE 24
POINT_SIZE 240
RESOLUTION_X 72
RESOLUTION_Y 72
SPACING "P"
AVERAGE_WIDTH 121
CHARSET_REGISTRY "ISO10646"
CHARSET_ENCODING "1"
FONTNAME_REGISTRY ""
CHARSET_COLLECTIONS "ISO8859-2 ISO8859-9 ISO8859-4 ISO10646-1"
BITS_PER_PIXEL 2
FONT_NAME "Hanalei-Regular"
FACE_NAME "Hanalei"
COPYRIGHT "Copyright (c) 2012 by Brian J. Bonislawsky DBA Astigmatic (AOETI) (astigma@astigmatic.com), with ReservedFont Name "Hanalei""
FONT_VERSION "1.000"
FONT_ASCENT 19
FONT_DESCENT 5
UNDERLINE_POSITION -3
UNDERLINE_THICKNESS 1
X_HEIGHT 15
CAP_HEIGHT 15
RAW_ASCENT 799
RAW_DESCENT 200
NORM_SPACE 5
RELATIVE_WEIGHT 40
RELATIVE_SETWIDTH 50
SUPERSCRIPT_X 0
SUPERSCRIPT_Y 11
SUPERSCRIPT_SIZE 15
SUBSCRIPT_X 0
SUBSCRIPT_Y 3
SUBSCRIPT_SIZE 15
AVG_LOWERCASE_WIDTH 129
AVG_UPPERCASE_WIDTH 127
ENDPROPERTIES
CHARS 366
STARTCHAR space
ENCODING 32
SWIDTH 200 0
DWIDTH 5 0
BBX 1 1 0 0
BITMAP
00
ENDCHAR
STARTCHAR exclam
ENCODING 33
SWIDTH 257 0
DWIDTH 6 0
BBX 5 18 1 -1
BITMAP
1900
8140
8140
8100
8200
8200
E940
8200
8200
8200
8200
8200
1400
1400
8200
8200
9600
1400
ENDCHAR
STARTCHAR quotedbl
ENCODING 34
SWIDTH 476 0
DWIDTH 11 0
BBX 11 11 0 7
BITMAP
1A4190
208818
208404
208514
258954
608904
208414
208404
504808
258564
050040
ENDCHAR
STARTCHAR numbersign
ENCODING 35
SWIDTH 1076 0
DWIDTH 26 0
BBX 24 17 1 0
BITMAP
6A406A065554
80A080885656
40604048022A
416041480182
8148814EAA81
A995A9882082
818281482081
814281482482
8181C14426A7
8190914A9202
A5A665880102
81642149AAA9
814815410000
814809426AA0
814506410008
804219420008
AA41BA01AAA0
ENDCHAR
STARTCHAR dollar
ENCODING 36
SWIDTH 453 0
DWIDTH 11 0
BBX 11 22 0 -3
BITMAP
00A800
010200
014100
014580
016A20
166014
641014
500690
10A800
2A6800
242640
054060
018020
007420
06A6A4
641014
500690
506900
264400
014400
020500
01A800
ENDCHAR
STARTCHAR percent
ENCODING 37
SWIDTH 889 0
DWIDTH 21 0
BBX 21 17 0 0
BITMAP
155400000000
240505500000
520644200000
526544100000
111144500000
111154400000
566155800000
501050850000
201610555500
055511660240
000065115940
000046111440
000042111040
000045165040
000145146040
000144241540
000014055600
ENDCHAR
STARTCHAR ampersand
ENCODING 38
SWIDTH 627 0
DWIDTH 15 0
BBX 15 19 0 -1
BITMAP
00500000
01A6A540
02544080
08085A50
020A9180
02028080
00464200
00A44800
01C09400
02206000
08142010
14299A94
505A0808
81A60408
922142A8
99118140
80698240
69406900
10000000
ENDCHAR
STARTCHAR quotesingle
ENCODING 39
SWIDTH 246 0
DWIDTH 6 0
BBX 5 11 0 7
BITMAP
1A40
2080
2080
2080
2580
6080
2080
2080
5040
2580
0500
ENDCHAR
STARTCHAR parenleft
ENCODING 40
SWIDTH 387 0
DWIDTH 9 0
BBX 11 21 -1 -2
BITMAP
000400
002640
002050
005080
018140
029200
051500
080800
142400
602000
205000
2AA000
081800
050600
026200
018080
009050
002014
000814
000960
000100
ENDCHAR
STARTCHAR parenright
ENCODING 41
SWIDTH 386 0
DWIDTH 9 0
BBX 10 21 0 -2
BITMAP
010000
198000
205000
202000
081400
052900
024200
024200
008080
005050
002050
00AAC0
014140
050500
085800
142400
602000
808000
814000
660000
040000
ENDCHAR
STARTCHAR asterisk
ENCODING 42
SWIDTH 517 0
DWIDTH 12 0
BBX 12 12 0 6
BITMAP
001400
005600
001100
141108
5669A2
508202
1A81A5
009240
022850
081124
088214
024090
ENDCHAR
STARTCHAR plus
ENCODING 43
SWIDTH 458 0
DWIDTH 11 0
BBX 11 11 0 2
BITMAP
00A900
014200
014100
2AAAA0
501414
501404
255660
155510
014500
019900
001000
ENDCHAR
STARTCHAR comma
ENCODING 44
SWIDTH 228 0
DWIDTH 5 0
BBX 6 6 -1 -3
BITMAP
0690
0820
1420
5080
4140
2600
ENDCHAR
STARTCHAR hyphen
ENCODING 45
SWIDTH 465 0
DWIDTH 11 0
BBX 11 5 0 5
BITMAP
26AAA0
501404
501404
269AA0
040000
ENDCHAR
STARTCHAR period
ENCODING 46
SWIDTH 202 0
DWIDTH 5 0
BBX 5 5 0 -1
BITMAP
1500
5140
5100
6600
0400
ENDCHAR
STARTCHAR slash
ENCODING 47
SWIDTH 453 0
DWIDTH 11 0
BBX 11 17 0 0
BITMAP
000140
000960
000814
001420
002050
00A480
008580
014140
020200
060400
098800
081800
142000
205000
808000
608000
0A4000
ENDCHAR
STARTCHAR zero
ENCODING 48
SWIDTH 646 0
DWIDTH 16 0
BBX 16 18 0 0
BITMAP
00140000
00265000
0050A000
00818400
02020500
098A4140
08188980
20207420
94502408
A6400502
80800A02
80247198
14198890
05930180
02980600
00A01400
00142000
000A8000
ENDCHAR
STARTCHAR one
ENCODING 49
SWIDTH 400 0
DWIDTH 10 0
BBX 10 18 -1 -1
BITMAP
002A40
00A460
061420
241420
502420
20A520
0A2560
001020
001410
001410
002520
002560
001010
001050
002010
002020
002550
000540
ENDCHAR
STARTCHAR two
ENCODING 50
SWIDTH 502 0
DWIDTH 12 0
BBX 12 17 0 0
BITMAP
005100
015A40
020580
180920
502408
808502
620245
0506A5
002405
009824
024180
090240
200900
202AA8
599405
514405
269698
ENDCHAR
STARTCHAR three
ENCODING 51
SWIDTH 456 0
DWIDTH 11 0
BBX 11 18 0 -1
BITMAP
190000
21AA00
500080
1000A0
1AA610
01D150
021540
186600
214900
160240
064064
0066A8
01A414
692004
8011A4
801900
265000
040000
ENDCHAR
STARTCHAR four
ENCODING 52
SWIDTH 514 0
DWIDTH 12 0
BBX 13 18 -1 -1
BITMAP
00055400
00099200
00102200
00105200
00814200
02A35200
05075600
08154200
202AAA40
50504080
24804080
07556A40
00514200
00014100
00010200
00020200
00025600
00005400
ENDCHAR
STARTCHAR five
ENCODING 53
SWIDTH 500 0
DWIDTH 12 0
BBX 12 17 0 0
BITMAP
051564
25D948
208808
208458
20A954
208000
2AA510
300958
200999
154541
055545
000145
141145
266AA9
401009
501008
2AAAA4
ENDCHAR
STARTCHAR six
ENCODING 54
SWIDTH 520 0
DWIDTH 13 0
BBX 13 18 0 -1
BITMAP
01A40000
02050000
02050000
02080000
05080000
0A880000
081C0000
08264000
04206000
10206800
2A288240
20569080
20865940
50A40900
80400800
80419000
6A490000
00600000
ENDCHAR
STARTCHAR seven
ENCODING 55
SWIDTH 423 0
DWIDTH 10 0
BBX 11 17 0 0
BITMAP
115140
956560
801020
801024
6AAAA0
002050
006940
005080
008140
008200
019200
021600
020500
050800
080800
081400
066400
ENDCHAR
STARTCHAR eight
ENCODING 56
SWIDTH 527 0
DWIDTH 13 0
BBX 13 18 0 -1
BITMAP
04140400
25999600
20041200
61559A00
79654200
14160500
08590800
02451400
02022000
02809000
04206000
082A2000
20580800
509A0500
81424140
66018240
0969AB00
01000000
ENDCHAR
STARTCHAR nine
ENCODING 57
SWIDTH 500 0
DWIDTH 12 0
BBX 12 18 0 -1
BITMAP
000140
006968
5A5022
802022
801695
81A908
A98988
502814
081420
022050
00E080
008580
008140
020200
050500
080800
025800
005000
ENDCHAR
STARTCHAR colon
ENCODING 58
SWIDTH 245 0
DWIDTH 6 0
BBX 4 14 1 -1
BITMAP
14
96
81
82
14
00
00
00
00
14
82
82
96
14
ENDCHAR
STARTCHAR semicolon
ENCODING 59
SWIDTH 270 0
DWIDTH 6 0
BBX 6 16 0 -3
BITMAP
0140
1850
0450
0850
0540
0000
0000
0000
0000
0000
0A80
1050
5050
8140
4200
6800
ENDCHAR
STARTCHAR less
ENCODING 60
SWIDTH 445 0
DWIDTH 11 0
BBX 10 13 0 2
BITMAP
000240
001850
00D020
062060
641640
501800
209000
6A6400
500A00
2821A0
025020
006420
000680
ENDCHAR
STARTCHAR equal
ENCODING 61
SWIDTH 484 0
DWIDTH 12 0
BBX 10 11 1 3
BITMAP
6AA580
802020
402020
811520
656580
000000
6AA580
802020
402020
811520
656580
ENDCHAR
STARTCHAR greater
ENCODING 62
SWIDTH 445 0
DWIDTH 11 0
BBX 10 13 0 2
BITMAP
0A0000
218000
502800
642240
054060
019020
002420
00A6A0
028010
285190
501900
20A400
1A0000
ENDCHAR
STARTCHAR question
ENCODING 63
SWIDTH 455 0
DWIDTH 11 0
BBX 11 18 0 -1
BITMAP
190000
21A400
500A90
501414
1A5014
007A24
0180A4
060190
0A0500
08A400
082000
082000
028000
054000
085000
085000
095000
014000
ENDCHAR
STARTCHAR at
ENCODING 64
SWIDTH 812 0
DWIDTH 19 0
BBX 18 20 1 -2
BITMAP
0504040000
21599AA800
A004046500
9595958100
4614045100
8115965540
9640406440
8266569040
8151105440
8141104950
8245104450
A665659810
8290105820
8511105690
8115555580
4264000000
A915800000
1510400000
0055400000
0001000000
ENDCHAR
STARTCHAR A
ENCODING 65
SWIDTH 507 0
DWIDTH 12 0
BBX 13 17 0 0
BITMAP
01A40000
02050000
02068000
02088000
05088000
0A485000
08182000
08296000
14282000
20252A00
2A2A5140
20510080
20810540
50959A00
80954200
80808200
6A40A900
ENDCHAR
STARTCHAR B
ENCODING 66
SWIDTH 533 0
DWIDTH 13 0
BBX 13 19 0 -1
BITMAP
02800000
19290000
28019000
28015A40
26910080
205A4080
2A51A600
20690600
20551900
20416000
20565800
29680240
20564140
20A99640
26952940
34012900
74018000
28650000
06800000
ENDCHAR
STARTCHAR C
ENCODING 67
SWIDTH 515 0
DWIDTH 12 0
BBX 13 18 0 -1
BITMAP
0AAA4000
08026A00
04020140
09510100
096AAA00
19600000
14600000
14200000
10500000
20500000
2A500000
20500000
20856A00
50A64140
80820140
2A411600
15AA5100
05000000
ENDCHAR
STARTCHAR D
ENCODING 68
SWIDTH 520 0
DWIDTH 12 0
BBX 13 19 0 -1
BITMAP
00500000
1A540000
25080000
28024000
22409000
2090A000
2A750800
20590240
20418080
20409240
2051A980
29590240
20660800
20506400
20805000
20424000
50590000
2A940000
00500000
ENDCHAR
STARTCHAR E
ENCODING 69
SWIDTH 490 0
DWIDTH 12 0
BBX 12 17 0 0
BITMAP
1A9958
202541
205102
205155
206A58
2A5000
205040
205590
204010
205050
296A80
205000
206954
208958
204405
505405
2A9968
ENDCHAR
STARTCHAR F
ENCODING 70
SWIDTH 475 0
DWIDTH 11 0
BBX 12 17 0 0
BITMAP
1A9958
202541
205102
205155
206A58
2A5000
205040
205590
204010
205050
296A80
205000
204000
208000
204000
505000
2A8000
ENDCHAR
STARTCHAR G
ENCODING 71
SWIDTH 557 0
DWIDTH 13 0
BBX 13 18 0 -1
BITMAP
0AAA4000
08026A00
04020140
09510100
096AAA00
19600000
14600000
14202A40
10508080
20505040
2A505040
20506980
20859080
50A65080
80821080
2A415080
15AA6A40
05000000
ENDCHAR
STARTCHAR H
ENCODING 72
SWIDTH 611 0
DWIDTH 15 0
BBX 15 17 0 0
BITMAP
1A802A80
20205050
20502040
20502080
20502080
2A502540
20506080
20502080
204021A0
20506908
29790408
20580564
20456980
20A95080
20505080
50508040
2A802A40
ENDCHAR
STARTCHAR I
ENCODING 73
SWIDTH 266 0
DWIDTH 6 0
BBX 6 17 0 0
BITMAP
1A80
2020
2050
2050
2050
2A50
2050
2040
2040
2050
2950
2050
2040
2080
2040
5050
2A80
ENDCHAR
STARTCHAR J
ENCODING 74
SWIDTH 484 0
DWIDTH 12 0
BBX 12 18 -1 -1
BITMAP
0000A9
000142
000142
000142
000142
0002A6
000202
000101
0A0145
208101
5052A6
241602
085A05
024245
014091
005052
0020A9
001A00
ENDCHAR
STARTCHAR K
ENCODING 75
SWIDTH 541 0
DWIDTH 13 0
BBX 14 17 0 0
BITMAP
1A800400
20201640
20505080
20518090
20560240
2A598500
20641800
20502000
20409000
20622000
29651400
20695800
20660400
20820200
20414140
50508140
2A809900
ENDCHAR
STARTCHAR L
ENCODING 76
SWIDTH 467 0
DWIDTH 11 0
BBX 12 17 0 0
BITMAP
1A8000
202000
205000
205000
205000
2A5000
205000
204000
204000
205000
295000
205000
206504
209955
205402
506402
2AAAA8
ENDCHAR
STARTCHAR M
ENCODING 77
SWIDTH 733 0
DWIDTH 18 0
BBX 18 17 0 0
BITMAP
02A0069000
0508051800
0509080900
0816081500
0812142500
1A522A6200
1421A02200
1425A06600
1030908200
2064509100
395829A140
2059516580
1085162080
50810A2080
8082092050
8082051020
6A41A41A90
ENDCHAR
STARTCHAR N
ENCODING 78
SWIDTH 598 0
DWIDTH 14 0
BBX 14 17 0 0
BITMAP
1A901A80
20242020
20582050
20582050
20522050
2A666A50
20616050
2050A050
20607040
20602050
29699950
20580850
20450840
20820280
20414180
50514650
2A80AE80
ENDCHAR
STARTCHAR O
ENCODING 79
SWIDTH 612 0
DWIDTH 15 0
BBX 14 18 0 -1
BITMAP
0AAA4500
08026A80
04020180
09510180
096AAA80
19602550
14602550
14202050
10502050
20501020
2A502960
20501420
20856AA0
50A65060
80820060
2A4115A0
15AA9640
05000000
ENDCHAR
STARTCHAR P
ENCODING 80
SWIDTH 513 0
DWIDTH 12 0
BBX 13 19 0 -1
BITMAP
01400000
09640000
28068000
28016900
26920180
20690080
2551A140
25524A40
20680600
20551400
20415000
25514000
25580000
20600000
20800000
20400000
50500000
25900000
05000000
ENDCHAR
STARTCHAR Q
ENCODING 81
SWIDTH 612 0
DWIDTH 15 0
BBX 14 21 0 -4
BITMAP
0AAA4500
08026A80
04020180
09510180
096AAA80
19602550
14602550
14202050
10502050
20501020
2A502960
20501420
20856AA0
50A65060
80820060
2A4115A0
15AAA640
05101000
00202000
00256000
00054000
ENDCHAR
STARTCHAR R
ENCODING 82
SWIDTH 532 0
DWIDTH 13 0
BBX 12 19 1 -1
BITMAP
050000
198000
A01A00
A00594
A90816
829402
915A45
954568
816408
81AAA0
815080
816050
95A460
818A54
820908
820202
414142
824098
140010
ENDCHAR
STARTCHAR S
ENCODING 83
SWIDTH 442 0
DWIDTH 11 0
BBX 11 18 0 -1
BITMAP
056AA0
2A2014
655014
8096A0
509000
142000
089400
0A0800
060500
014140
008580
006080
006020
6A9818
805814
801AA0
56A540
100000
ENDCHAR
STARTCHAR T
ENCODING 84
SWIDTH 453 0
DWIDTH 11 0
BBX 11 17 0 0
BITMAP
6AAAA4
801008
401008
955658
155510
010200
02A600
020200
010500
010100
024200
025600
020100
020500
020500
020200
01A900
ENDCHAR
STARTCHAR U
ENCODING 85
SWIDTH 583 0
DWIDTH 14 0
BBX 14 18 0 -1
BITMAP
0A902A40
14208080
04204040
14205040
14205080
2A60A980
20209080
20505080
20501080
20501080
2A506940
20802480
20856A80
50A90180
80810190
66815A50
156A6A80
06000000
ENDCHAR
STARTCHAR V
ENCODING 86
SWIDTH 506 0
DWIDTH 12 0
BBX 12 18 0 -1
BITMAP
040000
6640A9
814082
808082
508145
205245
295254
202108
142504
082814
081A94
0A5820
051420
022050
022040
022080
025E40
005000
ENDCHAR
STARTCHAR W
ENCODING 87
SWIDTH 735 0
DWIDTH 18 0
BBX 18 18 0 -1
BITMAP
0400000500
6640102580
8142582050
8142082080
5086045080
208A419080
2959A69540
2018828140
1424418200
0824514200
082A6A4200
0A60625600
0420920500
0220960800
0240990800
0280880800
026A465800
0050005000
ENDCHAR
STARTCHAR X
ENCODING 88
SWIDTH 483 0
DWIDTH 12 0
BBX 12 16 0 0
BITMAP
2A42A4
908208
508509
202814
083420
0A9650
068080
024240
020680
0A8A50
081820
142420
505808
808105
814209
2A01A4
ENDCHAR
STARTCHAR Y
ENCODING 89
SWIDTH 484 0
DWIDTH 12 0
BBX 13 17 -1 0
BITMAP
01001400
1A402640
50805080
50608080
14154200
085A9200
02461500
02450800
00881400
00242000
002A2000
00105000
00808000
01814000
02020000
01420000
00690000
ENDCHAR
STARTCHAR Z
ENCODING 90
SWIDTH 458 0
DWIDTH 11 0
BBX 11 17 0 0
BITMAP
096550
212520
201018
205568
196564
007420
008580
008080
020200
050500
0A8800
141400
202450
80A560
805014
915120
1EA950
ENDCHAR
STARTCHAR bracketleft
ENCODING 91
SWIDTH 420 0
DWIDTH 10 0
BBX 10 21 0 -2
BITMAP
000040
015550
0A4020
209020
206A40
208000
208000
254000
655000
208000
208000
208000
244000
255000
208000
208000
109580
508020
658020
0A5560
010040
ENDCHAR
STARTCHAR backslash
ENCODING 92
SWIDTH 453 0
DWIDTH 11 0
BBX 11 17 0 0
BITMAP
050000
258000
908000
205000
142000
086800
090800
050800
020500
014200
009940
009080
002050
002020
001414
000820
000680
ENDCHAR
STARTCHAR bracketright
ENCODING 93
SWIDTH 420 0
DWIDTH 10 0
BBX 10 21 0 -2
BITMAP
140000
555400
801A00
806080
169080
002080
002080
002580
001590
002040
002080
002080
002190
002590
002040
002080
256050
802010
802590
555A00
100400
ENDCHAR
STARTCHAR asciicircum
ENCODING 94
SWIDTH 353 0
DWIDTH 8 0
BBX 8 7 0 9
BITMAP
0250
0470
0854
2188
5242
2526
0414
ENDCHAR
STARTCHAR underscore
ENCODING 95
SWIDTH 499 0
DWIDTH 12 0
BBX 10 5 1 -7
BITMAP
9AAA90
802020
802020
9A9A60
100000
ENDCHAR
STARTCHAR grave
ENCODING 96
SWIDTH 183 0
DWIDTH 4 0
BBX 5 6 0 18
BITMAP
0400
5500
8100
5200
2140
0A00
ENDCHAR
STARTCHAR a
ENCODING 97
SWIDTH 507 0
DWIDTH 12 0
BBX 13 17 0 0
BITMAP
01A40000
02050000
02068000
02088000
05088000
0A485000
08182000
08296000
14282000
20252A00
2A2A5140
20510080
20810540
50959A00
80954200
80808200
6A40A900
ENDCHAR
STARTCHAR b
ENCODING 98
SWIDTH 533 0
DWIDTH 13 0
BBX 13 19 0 -1
BITMAP
02800000
19290000
28019000
28015A40
26910080
205A4080
2A51A600
20690600
20551900
20416000
20565800
29680240
20564140
20A99640
26952940
34012900
74018000
28650000
06800000
ENDCHAR
STARTCHAR c
ENCODING 99
SWIDTH 515 0
DWIDTH 12 0
BBX 13 18 0 -1
BITMAP
0AAA4000
08026A00
04020140
09510100
096AAA00
19600000
14600000
14200000
10500000
20500000
2A500000
20500000
20856A00
50A64140
80820140
2A411600
15AA5100
05000000
ENDCHAR
STARTCHAR d
ENCODING 100
SWIDTH 520 0
DWIDTH 12 0
BBX 13 19 0 -1
BITMAP
00500000
1A540000
25080000
28024000
22409000
2090A000
2A750800
20590240
20418080
20409240
2051A980
29590240
20660800
20506400
20805000
20424000
50590000
2A940000
00500000
ENDCHAR
STARTCHAR e
ENCODING 101
SWIDTH 490 0
DWIDTH 12 0
BBX 12 17 0 0
BITMAP
1A9958
202541
205102
205155
206A58
2A5000
205040
205590
204010
205050
296A80
205000
206954
208958
204405
505405
2A9968
ENDCHAR
STARTCHAR f
ENCODING 102
SWIDTH 475 0
DWIDTH 11 0
BBX 12 17 0 0
BITMAP
1A9958
202541
205102
205155
206A58
2A5000
205040
205590
204010
205050
296A80
205000
204000
208000
204000
505000
2A8000
ENDCHAR
STARTCHAR g
ENCODING 103
SWIDTH 557 0
DWIDTH 13 0
BBX 13 18 0 -1
BITMAP
0AAA4000
08026A00
04020140
09510100
096AAA00
19600000
14600000
14202A40
10508080
20505040
2A505040
20506980
20859080
50A65080
80821080
2A415080
15AA6A40
05000000
ENDCHAR
STARTCHAR h
ENCODING 104
SWIDTH 611 0
DWIDTH 15 0
BBX 15 17 0 0
BITMAP
1A802A80
20205050
20502040
20502080
20502080
2A502540
20506080
20502080
204021A0
20506908
29790408
20580564
20456980
20A95080
20505080
50508040
2A802A40
ENDCHAR
STARTCHAR i
ENCODING 105
SWIDTH 266 0
DWIDTH 6 0
BBX 6 17 0 0
BITMAP
1A80
2020
2050
2050
2050
2A50
2050
2040
2040
2050
2950
2050
2040
2080
2040
5050
2A80
ENDCHAR
STARTCHAR j
ENCODING 106
SWIDTH 482 0
DWIDTH 12 0
BBX 12 18 -1 -1
BITMAP
0000A9
000142
000142
000142
000142
0002A6
000202
000101
0A0145
208101
5052A6
241602
085A05
024245
014091
005052
0020A9
001A00
ENDCHAR
STARTCHAR k
ENCODING 107
SWIDTH 541 0
DWIDTH 13 0
BBX 14 17 0 0
BITMAP
1A800400
20201640
20505080
20518090
20560240
2A598500
20641800
20502000
20409000
20622000
29651400
20695800
20660400
20820200
20414140
50508140
2A809900
ENDCHAR
STARTCHAR l
ENCODING 108
SWIDTH 467 0
DWIDTH 11 0
BBX 12 17 0 0
BITMAP
1A8000
202000
205000
205000
205000
2A5000
205000
204000
204000
205000
295000
205000
206504
209955
205402
506402
2AAAA8
ENDCHAR
STARTCHAR m
ENCODING 109
SWIDTH 733 0
DWIDTH 18 0
BBX 18 17 0 0
BITMAP
02A0069000
0508051800
0509080900
0816081500
0812142500
1A522A6200
1421A02200
1425A06600
1030908200
2064509100
395829A140
2059516580
1085162080
50810A2080
8082092050
8082051020
6A41A41A90
ENDCHAR
STARTCHAR n
ENCODING 110
SWIDTH 598 0
DWIDTH 14 0
BBX 14 17 0 0
BITMAP
1A901A80
20242020
20582050
20582050
20522050
2A666A50
20616050
2050A050
20607040
20602050
29699950
20580850
20450840
20820280
20414180
50514650
2A80AE80
ENDCHAR
STARTCHAR o
ENCODING 111
SWIDTH 612 0
DWIDTH 15 0
BBX 14 18 0 -1
BITMAP
0AAA4500
08026A80
04020180
09510180
096AAA80
19602550
14602550
14202050
10502050
20501020
2A502960
20501420
20856AA0
50A65060
80820060
2A4115A0
15AA9640
05000000
ENDCHAR
STARTCHAR p
ENCODING 112
SWIDTH 513 0
DWIDTH 12 0
BBX 13 19 0 -1
BITMAP
01400000
09640000
28068000
28016900
26920180
20690080
2551A140
25524A40
20680600
20551400
20415000
25514000
25580000
20600000
20800000
20400000
50500000
25900000
05000000
ENDCHAR
STARTCHAR q
ENCODING 113
SWIDTH 612 0
DWIDTH 15 0
BBX 14 21 0 -4
BITMAP
0AAA4500
08026A80
04020180
09510180
096AAA80
19602550
14602550
14202050
10502050
20501020
2A502960
20501420
20856AA0
50A65060
80820060
2A4115A0
15AAA640
05101000
00202000
00256000
00054000
ENDCHAR
STARTCHAR r
ENCODING 114
SWIDTH 532 0
DWIDTH 13 0
BBX 12 19 1 -1
BITMAP
050000
198000
A01A00
A00594
A90816
829402
915A45
954568
816408
81AAA0
815080
816050
95A460
818A54
820908
820202
414142
824098
140010
ENDCHAR
STARTCHAR s
ENCODING 115
SWIDTH 442 0
DWIDTH 11 0
BBX 11 18 0 -1
BITMAP
056AA0
2A2014
655014
8096A0
509000
142000
089400
0A0800
060500
014140
008580
006080
006020
6A9818
805814
801AA0
56A540
100000
ENDCHAR
STARTCHAR t
ENCODING 116
SWIDTH 453 0
DWIDTH 11 0
BBX 11 17 0 0
BITMAP
6AAAA4
801008
401008
955658
155510
010200
02A600
020200
010500
010100
024200
025600
020100
020500
020500
020200
01A900
ENDCHAR
STARTCHAR u
ENCODING 117
SWIDTH 583 0
DWIDTH 14 0
BBX 14 18 0 -1
BITMAP
0A902A40
14208080
04204040
14205040
14205080
2A60A980
20209080
20505080
20501080
20501080
2A506940
20802480
20856A80
50A90180
80810190
66815A50
156A6A80
06000000
ENDCHAR
STARTCHAR v
ENCODING 118
SWIDTH 506 0
DWIDTH 12 0
BBX 12 18 0 -1
BITMAP
040000
6640A9
814082
808082
508145
205245
295254
202108
142504
082814
081A94
0A5820
051420
022050
022040
022080
025E40
005000
ENDCHAR
STARTCHAR w
ENCODING 119
SWIDTH 735 0
DWIDTH 18 0
BBX 18 18 0 -1
BITMAP
0400000500
6640102580
8142582050
8142082080
5086045080
208A419080
2959A69540
2018828140
1424418200
0824514200
082A6A4200
0A60625600
0420920500
0220960800
0240990800
0280880800
026A465800
0050005000
ENDCHAR
STARTCHAR x
ENCODING 120
SWIDTH 483 0
DWIDTH 12 0
BBX 12 16 0 0
BITMAP
2A42A4
908208
508509
202814
083420
0A9650
068080
024240
020680
0A8A50
081820
142420
505808
808105
814209
2A01A4
ENDCHAR
STARTCHAR y
ENCODING 121
SWIDTH 484 0
DWIDTH 12 0
BBX 13 17 -1 0
BITMAP
01001400
1A402640
50805080
50608080
14154200
085A9200
02461500
02450800
00881400
00242000
002A2000
00105000
00808000
01814000
02020000
01420000
00690000
ENDCHAR
STARTCHAR z
ENCODING 122
SWIDTH 458 0
DWIDTH 11 0
BBX 11 17 0 0
BITMAP
096550
212520
201018
205568
196564
007420
008580
008080
020200
050500
0A8800
141400
202450
80A560
805014
915120
1EA950
ENDCHAR
STARTCHAR braceleft
ENCODING 123
SWIDTH 473 0
DWIDTH 11 0
BBX 11 21 0 -2
BITMAP
000010
005698
060808
050808
0206A4
021600
019200
008140
69A880
800580
800740
969880
108140
018200
026600
020500
090950
080458
091408
01B948
000060
ENDCHAR
STARTCHAR bar
ENCODING 124
SWIDTH 263 0
DWIDTH 6 0
BBX 6 20 0 -1
BITMAP
0500
2990
2020
2050
2050
2050
2550
2550
2050
2040
2040
2050
2550
2150
2040
2080
2080
2050
5050
2A80
ENDCHAR
STARTCHAR braceright
ENCODING 125
SWIDTH 473 0
DWIDTH 11 0
BBX 12 21 0 -2
BITMAP
100000
565500
805140
805080
2A8140
015200
010600
020500
0569A8
088005
028005
059A98
021800
020600
016600
008140
159080
541050
802080
51AE00
140000
ENDCHAR
STARTCHAR asciitilde
ENCODING 126
SWIDTH 456 0
DWIDTH 11 0
BBX 11 6 0 6
BITMAP
06A160
083214
148920
618540
515280
282A40
ENDCHAR
STARTCHAR nonbreakingspace
ENCODING 160
SWIDTH 200 0
DWIDTH 5 0
BBX 1 1 0 0
BITMAP
00
ENDCHAR
STARTCHAR exclamdown
ENCODING 161
SWIDTH 259 0
DWIDTH 6 0
BBX 5 18 1 -1
BITMAP
1900
5200
4100
5600
0400
2900
8140
8200
8200
8200
8140
9A40
8200
8200
8200
4140
9640
1400
ENDCHAR
STARTCHAR cent
ENCODING 162
SWIDTH 480 0
DWIDTH 12 0
BBX 11 22 0 -3
BITMAP
006900
008140
008100
008250
009A54
059808
180408
640194
182900
228000
698000
508000
108000
10A400
508640
658568
0A4408
00A908
0082A0
008200
008200
006A00
ENDCHAR
STARTCHAR sterling
ENCODING 163
SWIDTH 594 0
DWIDTH 14 0
BBX 14 17 0 0
BITMAP
00040000
00264000
01D01A00
01800140
01A94200
01426600
01560400
2A42A400
41420800
41410800
2602A400
16A61000
01029580
01429520
02024020
02024420
01AAA580
ENDCHAR
STARTCHAR currency
ENCODING 164
SWIDTH 640 0
DWIDTH 15 0
BBX 15 14 0 2
BITMAP
0A000190
214A8214
50559808
20620824
09A20280
02068290
18052814
20182418
08259860
0A818580
24904264
50658808
208A1614
1A01A190
ENDCHAR
STARTCHAR yen
ENCODING 165
SWIDTH 575 0
DWIDTH 14 0
BBX 13 16 0 0
BITMAP
1A402A40
20802080
50505080
24148140
081A8200
02822600
02050500
01990800
0956A600
08020200
08010200
0AAAA900
00814000
02020000
01420000
00690000
ENDCHAR
STARTCHAR brokenbar
ENCODING 166
SWIDTH 258 0
DWIDTH 6 0
BBX 5 22 1 -3
BITMAP
6900
8140
8200
8200
A940
8100
8200
8100
8140
AA00
0000
1400
9600
8100
8200
9500
9540
8200
8200
8140
8240
1400
ENDCHAR
STARTCHAR section
ENCODING 167
SWIDTH 474 0
DWIDTH 11 0
BBX 11 18 0 -1
BITMAP
156AA0
251414
540414
3656A0
202900
2011A0
1A4264
086908
145414
209810
356690
251060
065014
2AA924
101594
500414
25A950
040000
ENDCHAR
STARTCHAR dieresis
ENCODING 168
SWIDTH 351 0
DWIDTH 8 0
BBX 9 4 0 18
BITMAP
691900
825140
425200
692A00
ENDCHAR
STARTCHAR copyright
ENCODING 169
SWIDTH 719 0
DWIDTH 17 0
BBX 17 18 0 0
BITMAP
0504040000
0956A6A900
2401012640
29A5556040
2145052140
2145582140
2548012540
215EA92140
2145402100
2145402100
2145401140
2955A92940
214A452140
2101542100
2155142500
5099599940
2A04040600
1AA6A69800
ENDCHAR
STARTCHAR ordfeminine
ENCODING 170
SWIDTH 455 0
DWIDTH 11 0
BBX 11 17 0 0
BITMAP
015500
029140
058080
085080
082040
142060
267660
206420
699820
940404
595908
964218
150150
0A5A80
100050
140050
0AAA80
ENDCHAR
STARTCHAR guillemotleft
ENCODING 171
SWIDTH 689 0
DWIDTH 17 0
BBX 16 11 0 3
BITMAP
00240024
00860085
05020502
64056009
50604060
61806180
59605960
24092409
06020502
00850185
00240064
ENDCHAR
STARTCHAR logicalnot
ENCODING 172
SWIDTH 591 0
DWIDTH 14 0
BBX 14 9 0 1
BITMAP
2AAAAA00
50050680
50012450
51556050
15551040
00001040
00001040
00002040
00001980
ENDCHAR
STARTCHAR uni00AD
ENCODING 173
SWIDTH 465 0
DWIDTH 11 0
BBX 11 5 0 5
BITMAP
26AAA0
501404
501404
269AA0
040000
ENDCHAR
STARTCHAR registered
ENCODING 174
SWIDTH 719 0
DWIDTH 17 0
BBX 17 18 0 0
BITMAP
0504040000
0956A6A900
2401012640
29A5556040
2145052140
2141002140
254A652540
215A022140
2145A92100
2145402100
2145401140
2944402940
2154402140
210A402100
2155142500
5099599940
2A04040600
1AA6A69800
ENDCHAR
STARTCHAR macron
ENCODING 175
SWIDTH 263 0
DWIDTH 6 0
BBX 7 3 0 18
BITMAP
9AA0
8014
6AA0
ENDCHAR
STARTCHAR degree
ENCODING 176
SWIDTH 333 0
DWIDTH 8 0
BBX 8 7 0 9
BITMAP
0AA4
1488
2184
8252
2969
1004
1564
ENDCHAR
STARTCHAR plusminus
ENCODING 177
SWIDTH 464 0
DWIDTH 11 0
BBX 11 16 0 -3
BITMAP
00A900
014200
004200
2AAAA0
501404
501404
259664
155510
014100
019900
001000
2AA960
501514
500408
515554
195560
ENDCHAR
STARTCHAR twosuperior
ENCODING 178
SWIDTH 324 0
DWIDTH 8 0
BBX 7 10 0 7
BITMAP
1550
4048
4004
1658
0410
0450
1094
1104
2904
1554
ENDCHAR
STARTCHAR threesuperior
ENCODING 179
SWIDTH 332 0
DWIDTH 8 0
BBX 8 10 0 7
BITMAP
1550
4008
4009
1A98
0444
0444
0685
2045
106C
1540
ENDCHAR
STARTCHAR acute
ENCODING 180
SWIDTH 202 0
DWIDTH 5 0
BBX 5 5 0 18
BITMAP
0A40
1080
5200
8500
6400
ENDCHAR
STARTCHAR mu
ENCODING 181
SWIDTH 582 0
DWIDTH 14 0
BBX 14 20 0 -3
BITMAP
01401900
19609140
14208140
14208140
14204140
14209480
24209480
29604080
20105080
20505080
20505580
20506580
20106980
26694280
20550180
20451650
2056A580
20500500
50500000
2A800000
ENDCHAR
STARTCHAR paragraph
ENCODING 182
SWIDTH 556 0
DWIDTH 13 0
BBX 13 19 0 -1
BITMAP
00005000
00065800
00A40A40
1A500940
5020A600
40198200
62909600
28619540
240A8200
05158200
01508200
00609200
00099540
00028200
00008200
00004200
00014200
00019600
00001400
ENDCHAR
STARTCHAR periodcentered
ENCODING 183
SWIDTH 215 0
DWIDTH 5 0
BBX 5 4 0 7
BITMAP
1900
5140
1140
2640
ENDCHAR
STARTCHAR cedilla
ENCODING 184
SWIDTH 237 0
DWIDTH 6 0
BBX 6 8 0 -6
BITMAP
0290
0510
0110
0510
6A60
8180
9900
1000
ENDCHAR
STARTCHAR onesuperior
ENCODING 185
SWIDTH 286 0
DWIDTH 7 0
BBX 6 10 0 7
BITMAP
0140
0520
5020
4150
4610
1510
0110
0110
0110
0150
ENDCHAR
STARTCHAR ordmasculine
ENCODING 186
SWIDTH 476 0
DWIDTH 11 0
BBX 11 17 0 0
BITMAP
155450
215954
5009A8
600608
6AAA08
108204
104204
105214
50AAA8
6A4808
100408
26AAA4
040000
09AA80
140050
140050
0AAA80
ENDCHAR
STARTCHAR guillemotright
ENCODING 187
SWIDTH 689 0
DWIDTH 17 0
BBX 16 11 0 3
BITMAP
09001900
21802140
50245064
24062406
06020602
01820186
062A062A
24052405
10205060
21802180
0A000900
ENDCHAR
STARTCHAR onequarter
ENCODING 188
SWIDTH 790 0
DWIDTH 19 0
BBX 19 17 0 0
BITMAP
0090000000
0510250000
1414514000
4044410000
5204410000
1504810000
0105550000
0105040100
0105040580
0151041090
0002445214
0005154210
0004210A90
0008125020
0004116560
0008500154
0001400160
ENDCHAR
STARTCHAR onehalf
ENCODING 189
SWIDTH 771 0
DWIDTH 19 0
BBX 18 18 0 -1
BITMAP
0090000000
0510250000
1414514000
4044410000
5204410000
1504810000
0105550000
0105040000
0105055540
0151050010
0002451550
0005145580
0004201140
0008108100
0004110550
0008514410
000140A950
0000000040
ENDCHAR
STARTCHAR threequarters
ENCODING 190
SWIDTH 817 0
DWIDTH 20 0
BBX 19 17 0 0
BITMAP
1550000000
4048154000
4009108000
1A98104000
0444114000
0444510000
0685550000
2041420040
106C410150
1540450420
0001941088
0001184144
0001084264
0001049418
0005145558
0005140054
0000500098
ENDCHAR
STARTCHAR questiondown
ENCODING 191
SWIDTH 455 0
DWIDTH 11 0
BBX 11 18 0 -1
BITMAP
001A40
001080
002040
001A80
000000
002680
002080
002480
008580
060280
640600
6A6400
505900
405160
698014
01D014
000660
000040
ENDCHAR
STARTCHAR Agrave
ENCODING 192
SWIDTH 507 0
DWIDTH 12 0
BBX 13 23 0 0
BITMAP
00100000
01540000
02040000
01480000
00850000
00280000
01A40000
02050000
02068000
02088000
05088000
0A485000
08182000
08296000
14282000
20252A00
2A2A5140
20510080
20810540
50959A00
80954200
80808200
6A40A900
ENDCHAR
STARTCHAR Aacute
ENCODING 193
SWIDTH 507 0
DWIDTH 12 0
BBX 13 22 0 0
BITMAP
00016000
00021400
00086000
00148000
000A0000
01A40000
02050000
02068000
02088000
05088000
0A485000
08182000
08296000
14282000
20252A00
2A2A5140
20510080
20810540
50959A00
80954200
80808200
6A40A900
ENDCHAR
STARTCHAR Acircumflex
ENCODING 194
SWIDTH 507 0
DWIDTH 12 0
BBX 13 23 0 0
BITMAP
006A0000
00830000
01488000
02185000
05152000
02829000
01A40000
02050000
02068000
02088000
05088000
0A485000
08182000
08296000
14282000
20252A00
2A2A5140
20510080
20810540
50959A00
80954200
80808200
6A40A900
ENDCHAR
STARTCHAR Atilde
ENCODING 195
SWIDTH 507 0
DWIDTH 12 0
BBX 13 23 0 0
BITMAP
01A85800
020C8500
05224800
08615000
1454A000
0A0A9000
01A40000
02050000
02068000
02088000
05088000
0A485000
08182000
08296000
14282000
20252A00
2A2A5140
20510080
20810540
50959A00
80954200
80808200
6A40A900
ENDCHAR
STARTCHAR Adieresis
ENCODING 196
SWIDTH 507 0
DWIDTH 12 0
BBX 13 22 0 0
BITMAP
06919000
08251400
04212000
0692A000
00000000
01A40000
02050000
02068000
02088000
05088000
0A485000
08182000
08296000
14282000
20252A00
2A2A5140
20510080
20810540
50959A00
80954200
80808200
6A40A900
ENDCHAR
STARTCHAR Aring
ENCODING 197
SWIDTH 507 0
DWIDTH 12 0
BBX 13 24 0 0
BITMAP
006A4000
00888000
02085000
05252000
02A66000
02005000
01AA8000
01A40000
02050000
02068000
02088000
05088000
0A485000
08182000
08296000
14282000
20252A00
2A2A5140
20510080
20810540
50959A00
80954200
80808200
6A40A900
ENDCHAR
STARTCHAR AE
ENCODING 198
SWIDTH 797 0
DWIDTH 19 0
BBX 20 17 -1 0
BITMAP
00000A9659
0002A42252
0001082202
0008082152
0018142A55
00343A6000
0056602040
0080942560
0081541020
0202142020
06966A6690
0818102000
0814542A54
2025601255
5050202102
2080202542
0A401A9568
ENDCHAR
STARTCHAR Ccedilla
ENCODING 199
SWIDTH 515 0
DWIDTH 12 0
BBX 13 23 0 -6
BITMAP
0AAA4000
08026A00
04020140
09510100
096AAA00
19600000
14600000
14200000
10500000
20500000
2A500000
20500000
20856A00
50A64140
80820140
2A411600
15AA9100
05088000
00088000
01A98000
02024000
01650000
00400000
ENDCHAR
STARTCHAR Egrave
ENCODING 200
SWIDTH 490 0
DWIDTH 12 0
BBX 12 24 0 0
BITMAP
001000
019400
020800
008400
005200
002900
000000
1A9958
202541
205102
205155
206A58
2A5000
205040
205590
204010
205050
296A80
205000
206954
208958
204405
505405
2A9968
ENDCHAR
STARTCHAR Eacute
ENCODING 201
SWIDTH 490 0
DWIDTH 12 0
BBX 12 23 0 0
BITMAP
000280
000820
001480
002200
002900
000000
1A9958
202541
205102
205155
206A58
2A5000
205040
205590
204010
205050
296A80
205000
206954
208958
204405
505405
2A9968
ENDCHAR
STARTCHAR Ecircumflex
ENCODING 202
SWIDTH 490 0
DWIDTH 12 0
BBX 12 24 0 0
BITMAP
006A00
008300
014880
051850
041520
028290
000000
1A9958
202541
205102
205155
206A58
2A5000
205040
205590
204010
205050
296A80
205000
206954
208958
204405
505405
2A9968
ENDCHAR
STARTCHAR Edieresis
ENCODING 203
SWIDTH 490 0
DWIDTH 12 0
BBX 12 22 0 0
BITMAP
069190
082514
082520
0692A0
000000
1A9958
202541
205102
205155
206A58
2A5000
205040
205590
204010
205050
296A80
205000
206954
208958
204405
505405
2A9968
ENDCHAR
STARTCHAR Igrave
ENCODING 204
SWIDTH 266 0
DWIDTH 6 0
BBX 6 24 0 0
BITMAP
1400
9800
8500
5200
2100
1A00
0000
1A80
2020
2050
2050
2050
2A50
2050
2040
2040
2050
2950
2050
2040
2080
2040
5050
2A80
ENDCHAR
STARTCHAR Iacute
ENCODING 205
SWIDTH 266 0
DWIDTH 6 0
BBX 7 23 0 0
BITMAP
0098
0048
0214
0520
0280
0000
1A80
2020
2050
2050
2050
2A50
2050
2040
2040
2050
2950
2050
2040
2080
2040
5050
2A80
ENDCHAR
STARTCHAR Icircumflex
ENCODING 206
SWIDTH 266 0
DWIDTH 6 0
BBX 8 24 0 0
BITMAP
0A80
1490
2160
8208
8885
6468
0000
1A80
2020
2050
2050
2050
2A50
2050
2040
2040
2050
2950
2050
2040
2080
2040
5050
2A80
ENDCHAR
STARTCHAR Idieresis
ENCODING 207
SWIDTH 266 0
DWIDTH 6 0
BBX 9 22 -1 0
BITMAP
291900
825140
521100
692A00
000000
06A000
080800
081400
081400
081400
0A9400
081400
081000
081000
081400
0A5400
081400
081000
082000
081000
141400
0AA000
ENDCHAR
STARTCHAR Eth
ENCODING 208
SWIDTH 669 0
DWIDTH 16 0
BBX 18 19 -1 -1
BITMAP
0000100000
000A980000
0016060000
000A018000
0009802000
0008205800
001A694500
1515220180
5156209050
5001602080
1151609A50
156F664180
0014294600
0004205800
0014202000
0014218000
0020220000
001AA80000
0000140000
ENDCHAR
STARTCHAR Ntilde
ENCODING 209
SWIDTH 598 0
DWIDTH 14 0
BBX 14 24 0 0
BITMAP
002A4A40
00129480
00856140
02092200
02121800
0191A800
00000000
1A901A80
20242020
20582050
20582050
20522050
2A666A50
20616050
2050A050
20607040
20602050
29699950
20580850
20450840
20820280
20414180
50514650
2A80AE80
ENDCHAR
STARTCHAR Ograve
ENCODING 210
SWIDTH 612 0
DWIDTH 15 0
BBX 14 25 0 -1
BITMAP
00050000
00260000
00214000
00148000
00084000
00068000
00000000
0AAA4500
08026A80
04020180
09510180
096AAA80
19602550
14602550
14202050
10502050
20501020
2A502960
20501420
20856AA0
50A65060
80820060
2A4115A0
15AA9640
05000000
ENDCHAR
STARTCHAR Oacute
ENCODING 211
SWIDTH 612 0
DWIDTH 15 0
BBX 14 24 0 -1
BITMAP
00006800
00008500
00014800
00012000
00029000
00000000
0AAA4500
08026A80
04020180
09510180
096AAA80
19602550
14602550
14202050
10502050
20501020
2A502960
20501420
20856AA0
50A65060
80820060
2A4115A0
15AA9640
05000000
ENDCHAR
STARTCHAR Ocircumflex
ENCODING 212
SWIDTH 612 0
DWIDTH 15 0
BBX 14 24 0 -1
BITMAP
000A9000
0014A000
00215400
00824800
00848500
00646800
0AAA4500
08026A80
04020180
09510180
096AAA80
19602550
14602550
14202050
10502050
20501020
2A502960
20501420
20856AA0
50A65060
80820060
2A4115A0
15AA9640
05000000
ENDCHAR
STARTCHAR Otilde
ENCODING 213
SWIDTH 612 0
DWIDTH 15 0
BBX 14 24 0 -1
BITMAP
001A4980
0021C440
00826080
014A1200
01160900
00A0A800
0AAA4500
08026A80
04020180
09510180
096AAA80
19602550
14602550
14202050
10502050
20501020
2A502960
20501420
20856AA0
50A65060
80820060
2A4115A0
15AA9640
05000000
ENDCHAR
STARTCHAR Odieresis
ENCODING 214
SWIDTH 612 0
DWIDTH 15 0
BBX 14 23 0 -1
BITMAP
01A46400
02094500
01084800
01A4A800
00000000
0AAA4500
08026A80
04020180
09510180
096AAA80
19602550
14602550
14202050
10502050
20501020
2A502960
20501420
20856AA0
50A65060
80820060
2A4115A0
15AA9640
05000000
ENDCHAR
STARTCHAR multiply
ENCODING 215
SWIDTH 421 0
DWIDTH 10 0
BBX 10 10 0 3
BITMAP
010000
194A80
20A050
502410
240980
092200
224090
509050
215580
050500
ENDCHAR
STARTCHAR Oslash
ENCODING 216
SWIDTH 612 0
DWIDTH 15 0
BBX 14 18 0 -1
BITMAP
0AAA4500
08026580
04022050
09515080
096A8180
19624250
14656550
14280850
10642050
20606020
2AA0A960
20995420
22026AA0
550A5060
88160060
202115A0
142A9640
0A800000
ENDCHAR
STARTCHAR Ugrave
ENCODING 217
SWIDTH 583 0
DWIDTH 14 0
BBX 14 24 0 -1
BITMAP
00040000
00550000
00810000
00120000
00114000
000A0000
0A902A40
14208080
04204040
14205040
14205080
2A60A980
20209080
20505080
20501080
20501080
2A506940
20802480
20856A80
50A90180
80810190
66815A50
156A6A80
06000000
ENDCHAR
STARTCHAR Uacute
ENCODING 218
SWIDTH 583 0
DWIDTH 14 0
BBX 14 24 0 -1
BITMAP
0001A000
00021400
00052000
00148000
000A4000
00000000
0A902A40
14208080
04204040
14205040
14205080
2A60A980
20209080
20505080
20501080
20501080
2A506940
20802480
20856A80
50A90180
80810190
66815A50
156A6A80
06000000
ENDCHAR
STARTCHAR Ucircumflex
ENCODING 219
SWIDTH 583 0
DWIDTH 14 0
BBX 14 25 0 -1
BITMAP
001A4000
00218000
00825000
01492000
02160800
00A1A000
00000000
0A902A40
14208080
04204040
14205040
14205080
2A60A980
20209080
20505080
20501080
20501080
2A506940
20802480
20856A80
50A90180
80810190
66815A50
156A6A80
06000000
ENDCHAR
STARTCHAR Udieresis
ENCODING 220
SWIDTH 583 0
DWIDTH 14 0
BBX 14 23 0 -1
BITMAP
01A5A400
02060800
02160800
02A5A400
00000000
0A902A40
14208080
04204040
14205040
14205080
2A60A980
20209080
20505080
20501080
20501080
2A506940
20802480
20856A80
50A90180
80810190
66815A50
156A6A80
06000000
ENDCHAR
STARTCHAR Yacute
ENCODING 221
SWIDTH 484 0
DWIDTH 12 0
BBX 13 21 -1 0
BITMAP
0001A000
00021400
00052000
00148000
010A1400
1A402640
50805080
50608080
14154200
085A9200
02461500
02450800
00881400
00242000
002A2000
00105000
00808000
01814000
02020000
01420000
00690000
ENDCHAR
STARTCHAR Thorn
ENCODING 222
SWIDTH 520 0
DWIDTH 13 0
BBX 13 18 0 -1
BITMAP
06400000
20600000
22900000
28190000
28019000
28011A40
25A10080
205A4040
2040A600
20560540
25680500
25522000
20418000
20860000
20640000
50500000
25900000
05000000
ENDCHAR
STARTCHAR germandbls
ENCODING 223
SWIDTH 884 0
DWIDTH 21 0
BBX 21 18 0 -1
BITMAP
056AA056AA40
2A2015A48080
655016988080
8096A2056A40
509002024000
142000814000
089400558000
0A0800345000
060500242000
014140080800
008580016500
006080024200
006020018140
6A981AA69080
805819022080
801AA5012640
56A5426A9500
100000400000
ENDCHAR
STARTCHAR agrave
ENCODING 224
SWIDTH 507 0
DWIDTH 12 0
BBX 13 23 0 0
BITMAP
00100000
01540000
02040000
01480000
00850000
00280000
01A40000
02050000
02068000
02088000
05088000
0A485000
08182000
08296000
14282000
20252A00
2A2A5140
20510080
20810540
50959A00
80954200
80808200
6A40A900
ENDCHAR
STARTCHAR aacute
ENCODING 225
SWIDTH 507 0
DWIDTH 12 0
BBX 13 22 0 0
BITMAP
00016000
00021400
00086000
00148000
000A0000
01A40000
02050000
02068000
02088000
05088000
0A485000
08182000
08296000
14282000
20252A00
2A2A5140
20510080
20810540
50959A00
80954200
80808200
6A40A900
ENDCHAR
STARTCHAR acircumflex
ENCODING 226
SWIDTH 507 0
DWIDTH 12 0
BBX 13 23 0 0
BITMAP
006A0000
00830000
01488000
02185000
05152000
02829000
01A40000
02050000
02068000
02088000
05088000
0A485000
08182000
08296000
14282000
20252A00
2A2A5140
20510080
20810540
50959A00
80954200
80808200
6A40A900
ENDCHAR
STARTCHAR atilde
ENCODING 227
SWIDTH 507 0
DWIDTH 12 0
BBX 13 23 0 0
BITMAP
01A85800
020C8500
05224800
08615000
1454A000
0A0A9000
01A40000
02050000
02068000
02088000
05088000
0A485000
08182000
08296000
14282000
20252A00
2A2A5140
20510080
20810540
50959A00
80954200
80808200
6A40A900
ENDCHAR
STARTCHAR adieresis
ENCODING 228
SWIDTH 507 0
DWIDTH 12 0
BBX 13 22 0 0
BITMAP
06919000
08251400
04212000
0692A000
00000000
01A40000
02050000
02068000
02088000
05088000
0A485000
08182000
08296000
14282000
20252A00
2A2A5140
20510080
20810540
50959A00
80954200
80808200
6A40A900
ENDCHAR
STARTCHAR aring
ENCODING 229
SWIDTH 507 0
DWIDTH 12 0
BBX 13 24 0 0
BITMAP
006A4000
00888000
02085000
05252000
02A66000
02005000
01AA8000
01A40000
02050000
02068000
02088000
05088000
0A485000
08182000
08296000
14282000
20252A00
2A2A5140
20510080
20810540
50959A00
80954200
80808200
6A40A900
ENDCHAR
STARTCHAR ae
ENCODING 230
SWIDTH 797 0
DWIDTH 19 0
BBX 20 17 -1 0
BITMAP
00000A9659
0002A42252
0001082202
0008082152
0018142A55
00343A6000
0056602040
0080942560
0081541020
0202142020
06966A6690
0818102000
0814542A54
2025601255
5050202102
2080202542
0A401A9568
ENDCHAR
STARTCHAR ccedilla
ENCODING 231
SWIDTH 515 0
DWIDTH 12 0
BBX 13 23 0 -6
BITMAP
0AAA4000
08026A00
04020140
09510100
096AAA00
19600000
14600000
14200000
10500000
20500000
2A500000
20500000
20856A00
50A64140
80820140
2A411600
15AA9100
05088000
00088000
01A98000
02024000
01650000
00400000
ENDCHAR
STARTCHAR egrave
ENCODING 232
SWIDTH 490 0
DWIDTH 12 0
BBX 12 24 0 0
BITMAP
001000
019400
020800
008400
005200
002900
000000
1A9958
202541
205102
205155
206A58
2A5000
205040
205590
204010
205050
296A80
205000
206954
208958
204405
505405
2A9968
ENDCHAR
STARTCHAR eacute
ENCODING 233
SWIDTH 490 0
DWIDTH 12 0
BBX 12 23 0 0
BITMAP
000280
000820
001480
002200
002900
000000
1A9958
202541
205102
205155
206A58
2A5000
205040
205590
204010
205050
296A80
205000
206954
208958
204405
505405
2A9968
ENDCHAR
STARTCHAR ecircumflex
ENCODING 234
SWIDTH 490 0
DWIDTH 12 0
BBX 12 24 0 0
BITMAP
006A00
008300
014880
051850
041520
028290
000000
1A9958
202541
205102
205155
206A58
2A5000
205040
205590
204010
205050
296A80
205000
206954
208958
204405
505405
2A9968
ENDCHAR
STARTCHAR edieresis
ENCODING 235
SWIDTH 490 0
DWIDTH 12 0
BBX 12 22 0 0
BITMAP
069190
082514
082520
0692A0
000000
1A9958
202541
205102
205155
206A58
2A5000
205040
205590
204010
205050
296A80
205000
206954
208958
204405
505405
2A9968
ENDCHAR
STARTCHAR igrave
ENCODING 236
SWIDTH 266 0
DWIDTH 6 0
BBX 6 24 0 0
BITMAP
1400
9800
8500
5200
2100
1A00
0000
1A80
2020
2050
2050
2050
2A50
2050
2040
2040
2050
2950
2050
2040
2080
2040
5050
2A80
ENDCHAR
STARTCHAR iacute
ENCODING 237
SWIDTH 266 0
DWIDTH 6 0
BBX 7 23 0 0
BITMAP
0098
0048
0214
0520
0280
0000
1A80
2020
2050
2050
2050
2A50
2050
2040
2040
2050
2950
2050
2040
2080
2040
5050
2A80
ENDCHAR
STARTCHAR icircumflex
ENCODING 238
SWIDTH 266 0
DWIDTH 6 0
BBX 8 24 0 0
BITMAP
0A80
1490
2160
8208
8885
6468
0000
1A80
2020
2050
2050
2050
2A50
2050
2040
2040
2050
2950
2050
2040
2080
2040
5050
2A80
ENDCHAR
STARTCHAR idieresis
ENCODING 239
SWIDTH 266 0
DWIDTH 6 0
BBX 9 22 -1 0
BITMAP
291900
825140
521100
692A00
000000
06A000
080800
081400
081400
081400
0A9400
081400
081000
081000
081400
0A5400
081400
081000
082000
081000
141400
0AA000
ENDCHAR
STARTCHAR eth
ENCODING 240
SWIDTH 669 0
DWIDTH 16 0
BBX 18 19 -1 -1
BITMAP
0000100000
000A980000
0016060000
000A018000
0009802000
0008205800
001A694500
1515220180
5156209050
5001602080
1151609A50
156F664180
0014294600
0004205800
0014202000
0014218000
0020220000
001AA80000
0000140000
ENDCHAR
STARTCHAR ntilde
ENCODING 241
SWIDTH 598 0
DWIDTH 14 0
BBX 14 24 0 0
BITMAP
002A4A40
00129480
00856140
02092200
02121800
0191A800
00000000
1A901A80
20242020
20582050
20582050
20522050
2A666A50
20616050
2050A050
20607040
20602050
29699950
20580850
20450840
20820280
20414180
50514650
2A80AE80
ENDCHAR
STARTCHAR ograve
ENCODING 242
SWIDTH 612 0
DWIDTH 15 0
BBX 14 25 0 -1
BITMAP
00050000
00260000
00214000
00148000
00084000
00068000
00000000
0AAA4500
08026A80
04020180
09510180
096AAA80
19602550
14602550
14202050
10502050
20501020
2A502960
20501420
20856AA0
50A65060
80820060
2A4115A0
15AA9640
05000000
ENDCHAR
STARTCHAR oacute
ENCODING 243
SWIDTH 612 0
DWIDTH 15 0
BBX 14 24 0 -1
BITMAP
00006800
00008500
00014800
00012000
00029000
00000000
0AAA4500
08026A80
04020180
09510180
096AAA80
19602550
14602550
14202050
10502050
20501020
2A502960
20501420
20856AA0
50A65060
80820060
2A4115A0
15AA9640
05000000
ENDCHAR
STARTCHAR ocircumflex
ENCODING 244
SWIDTH 612 0
DWIDTH 15 0
BBX 14 24 0 -1
BITMAP
000A9000
0014A000
00215400
00824800
00848500
00646800
0AAA4500
08026A80
04020180
09510180
096AAA80
19602550
14602550
14202050
10502050
20501020
2A502960
20501420
20856AA0
50A65060
80820060
2A4115A0
15AA9640
05000000
ENDCHAR
STARTCHAR otilde
ENCODING 245
SWIDTH 612 0
DWIDTH 15 0
BBX 14 24 0 -1
BITMAP
001A4980
0021C440
00826080
014A1200
01160900
00A0A800
0AAA4500
08026A80
04020180
09510180
096AAA80
19602550
14602550
14202050
10502050
20501020
2A502960
20501420
20856AA0
50A65060
80820060
2A4115A0
15AA9640
05000000
ENDCHAR
STARTCHAR odieresis
ENCODING 246
SWIDTH 612 0
DWIDTH 15 0
BBX 14 23 0 -1
BITMAP
01A46400
02094500
01084800
01A4A800
00000000
0AAA4500
08026A80
04020180
09510180
096AAA80
19602550
14602550
14202050
10502050
20501020
2A502960
20501420
20856AA0
50A65060
80820060
2A4115A0
15AA9640
05000000
ENDCHAR
STARTCHAR divide
ENCODING 247
SWIDTH 457 0
DWIDTH 11 0
BBX 11 14 0 1
BITMAP
006400
014500
004500
009800
001000
2AAAA0
401414
501414
269AA0
141000
019900
014500
014500
006400
ENDCHAR
STARTCHAR oslash
ENCODING 248
SWIDTH 612 0
DWIDTH 15 0
BBX 14 18 0 -1
BITMAP
0AAA4500
08026580
04022050
09515080
096A8180
19624250
14656550
14280850
10642050
20606020
2AA0A960
20995420
22026AA0
550A5060
88160060
202115A0
142A9640
0A800000
ENDCHAR
STARTCHAR ugrave
ENCODING 249
SWIDTH 583 0
DWIDTH 14 0
BBX 14 24 0 -1
BITMAP
00040000
00550000
00810000
00120000
00114000
000A0000
0A902A40
14208080
04204040
14205040
14205080
2A60A980
20209080
20505080
20501080
20501080
2A506940
20802480
20856A80
50A90180
80810190
66815A50
156A6A80
06000000
ENDCHAR
STARTCHAR uacute
ENCODING 250
SWIDTH 583 0
DWIDTH 14 0
BBX 14 24 0 -1
BITMAP
0001A000
00021400
00052000
00148000
000A4000
00000000
0A902A40
14208080
04204040
14205040
14205080
2A60A980
20209080
20505080
20501080
20501080
2A506940
20802480
20856A80
50A90180
80810190
66815A50
156A6A80
06000000
ENDCHAR
STARTCHAR ucircumflex
ENCODING 251
SWIDTH 583 0
DWIDTH 14 0
BBX 14 25 0 -1
BITMAP
001A4000
00218000
00825000
01492000
02160800
00A1A000
00000000
0A902A40
14208080
04204040
14205040
14205080
2A60A980
20209080
20505080
20501080
20501080
2A506940
20802480
20856A80
50A90180
80810190
66815A50
156A6A80
06000000
ENDCHAR
STARTCHAR udieresis
ENCODING 252
SWIDTH 583 0
DWIDTH 14 0
BBX 14 23 0 -1
BITMAP
01A5A400
02060800
02160800
02A5A400
00000000
0A902A40
14208080
04204040
14205040
14205080
2A60A980
20209080
20505080
20501080
20501080
2A506940
20802480
20856A80
50A90180
80810190
66815A50
156A6A80
06000000
ENDCHAR
STARTCHAR yacute
ENCODING 253
SWIDTH 484 0
DWIDTH 12 0
BBX 13 21 -1 0
BITMAP
0001A000
00021400
00052000
00148000
010A1400
1A402640
50805080
50608080
14154200
085A9200
02461500
02450800
00881400
00242000
002A2000
00105000
00808000
01814000
02020000
01420000
00690000
ENDCHAR
STARTCHAR thorn
ENCODING 254
SWIDTH 520 0
DWIDTH 13 0
BBX 13 18 0 -1
BITMAP
06400000
20600000
22900000
28190000
28019000
28011A40
25A10080
205A4040
2040A600
20560540
25680500
25522000
20418000
20860000
20640000
50500000
25900000
05000000
ENDCHAR
STARTCHAR ydieresis
ENCODING 255
SWIDTH 484 0
DWIDTH 12 0
BBX 13 21 -1 0
BITMAP
01A5A400
05060800
02160800
02A1A400
01001400
1A402640
50805080
50608080
14154200
085A9200
02461500
02450800
00881400
00242000
002A2000
00105000
00808000
01814000
02020000
01420000
00690000
ENDCHAR
STARTCHAR Amacron
ENCODING 256
SWIDTH 507 0
DWIDTH 12 0
BBX 13 20 0 0
BITMAP
026A8000
02005000
01AA8000
01A40000
02050000
02068000
02088000
05088000
0A485000
08182000
08296000
14282000
20252A00
2A2A5140
20510080
20810540
50959A00
80954200
80808200
6A40A900
ENDCHAR
STARTCHAR amacron
ENCODING 257
SWIDTH 507 0
DWIDTH 12 0
BBX 13 20 0 0
BITMAP
026A8000
02005000
01AA8000
01A40000
02050000
02068000
02088000
05088000
0A485000
08182000
08296000
14282000
20252A00
2A2A5140
20510080
20810540
50959A00
80954200
80808200
6A40A900
ENDCHAR
STARTCHAR Abreve
ENCODING 258
SWIDTH 507 0
DWIDTH 12 0
BBX 13 23 0 0
BITMAP
06819000
08422000
04512000
052A9000
0150C000
01AA4000
01A40000
02050000
02068000
02088000
05088000
0A485000
08182000
08296000
14282000
20252A00
2A2A5140
20510080
20810540
50959A00
80954200
80808200
6A40A900
ENDCHAR
STARTCHAR abreve
ENCODING 259
SWIDTH 507 0
DWIDTH 12 0
BBX 13 23 0 0
BITMAP
06819000
08422000
04512000
052A9000
0150C000
01AA4000
01A40000
02050000
02068000
02088000
05088000
0A485000
08182000
08296000
14282000
20252A00
2A2A5140
20510080
20810540
50959A00
80954200
80808200
6A40A900
ENDCHAR
STARTCHAR Aogonek
ENCODING 260
SWIDTH 507 0
DWIDTH 12 0
BBX 13 22 0 -5
BITMAP
01A40000
02050000
02068000
02088000
05088000
0A485000
08182000
08296000
14282000
20252A00
2A2A5140
20510080
20810540
50959A00
80954200
80808200
6A40A900
00004800
00014800
0000E140
00002480
00000A40
ENDCHAR
STARTCHAR aogonek
ENCODING 261
SWIDTH 507 0
DWIDTH 12 0
BBX 13 22 0 -5
BITMAP
01A40000
02050000
02068000
02088000
05088000
0A485000
08182000
08296000
14282000
20252A00
2A2A5140
20510080
20810540
50959A00
80954200
80808200
6A40A900
00004800
00014800
0000E140
00002480
00000A40
ENDCHAR
STARTCHAR Cacute
ENCODING 262
SWIDTH 515 0
DWIDTH 12 0
BBX 13 24 0 -1
BITMAP
0000A400
00010800
00052000
00085000
00064000
00000000
0AAA4000
08026A00
04020140
09510100
096AAA00
19600000
14600000
14200000
10500000
20500000
2A500000
20500000
20856A00
50A64140
80820140
2A411600
15AA5100
05000000
ENDCHAR
STARTCHAR cacute
ENCODING 263
SWIDTH 515 0
DWIDTH 12 0
BBX 13 24 0 -1
BITMAP
0000A400
00010800
00052000
00085000
00064000
00000000
0AAA4000
08026A00
04020140
09510100
096AAA00
19600000
14600000
14200000
10500000
20500000
2A500000
20500000
20856A00
50A64140
80820140
2A411600
15AA5100
05000000
ENDCHAR
STARTCHAR Ccircumflex
ENCODING 264
SWIDTH 515 0
DWIDTH 12 0
BBX 13 24 0 -1
BITMAP
000A8000
00149000
00216000
00820800
00888500
00646800
0AAA4000
08026A00
04020140
09510100
096AAA00
19600000
14600000
14200000
10500000
20500000
2A500000
20500000
20856A00
50A64140
80820140
2A411600
15AA5100
05000000
ENDCHAR
STARTCHAR ccircumflex
ENCODING 265
SWIDTH 515 0
DWIDTH 12 0
BBX 13 24 0 -1
BITMAP
000A8000
00149000
00216000
00820800
00888500
00646800
0AAA4000
08026A00
04020140
09510100
096AAA00
19600000
14600000
14200000
10500000
20500000
2A500000
20500000
20856A00
50A64140
80820140
2A411600
15AA5100
05000000
ENDCHAR
STARTCHAR Cdotaccent
ENCODING 266
SWIDTH 515 0
DWIDTH 12 0
BBX 13 23 0 -1
BITMAP
00068000
00104000
00148000
000A8000
00000000
0AAA4000
08026A00
04020140
09510100
096AAA00
19600000
14600000
14200000
10500000
20500000
2A500000
20500000
20856A00
50A64140
80820140
2A411600
15AA5100
05000000
ENDCHAR
STARTCHAR cdotaccent
ENCODING 267
SWIDTH 515 0
DWIDTH 12 0
BBX 13 23 0 -1
BITMAP
00068000
00104000
00148000
000A8000
00000000
0AAA4000
08026A00
04020140
09510100
096AAA00
19600000
14600000
14200000
10500000
20500000
2A500000
20500000
20856A00
50A64140
80820140
2A411600
15AA5100
05000000
ENDCHAR
STARTCHAR Ccaron
ENCODING 268
SWIDTH 515 0
DWIDTH 12 0
BBX 13 24 0 -1
BITMAP
00989800
00454800
00821400
00216000
0020D000
000A4000
0AAA4000
08026A00
04020140
09510100
096AAA00
19600000
14600000
14200000
10500000
20500000
2A500000
20500000
20856A00
50A64140
80820140
2A411600
15AA5100
05000000
ENDCHAR
STARTCHAR ccaron
ENCODING 269
SWIDTH 515 0
DWIDTH 12 0
BBX 13 24 0 -1
BITMAP
00989800
00454800
00821400
00216000
0020D000
000A4000
0AAA4000
08026A00
04020140
09510100
096AAA00
19600000
14600000
14200000
10500000
20500000
2A500000
20500000
20856A00
50A64140
80820140
2A411600
15AA5100
05000000
ENDCHAR
STARTCHAR Dcaron
ENCODING 270
SWIDTH 520 0
DWIDTH 12 0
BBX 13 25 0 -1
BITMAP
06525000
05252000
02185000
01494000
00860000
00690000
00500000
1A540000
25080000
28024000
22409000
2090A000
2A750800
20590240
20418080
20409240
2051A980
29590240
20660800
20506400
20805000
20424000
50590000
2A940000
00500000
ENDCHAR
STARTCHAR dcaron
ENCODING 271
SWIDTH 520 0
DWIDTH 12 0
BBX 13 25 0 -1
BITMAP
06525000
05252000
02185000
01494000
00860000
00690000
00500000
1A540000
25080000
28024000
22409000
2090A000
2A750800
20590240
20418080
20409240
2051A980
29590240
20660800
20506400
20805000
20424000
50590000
2A940000
00500000
ENDCHAR
STARTCHAR Dcroat
ENCODING 272
SWIDTH 669 0
DWIDTH 16 0
BBX 18 19 -1 -1
BITMAP
0000100000
000A980000
0016060000
000A018000
0009802000
0008205800
001A694500
1515220180
5156209050
5001602080
1151609A50
156F664180
0014294600
0004205800
0014202000
0014218000
0020220000
001AA80000
0000140000
ENDCHAR
STARTCHAR dcroat
ENCODING 273
SWIDTH 669 0
DWIDTH 16 0
BBX 18 19 -1 -1
BITMAP
0000100000
000A980000
0016060000
000A018000
0009802000
0008205800
001A694500
1515220180
5156209050
5001602080
1151609A50
156F664180
0014294600
0004205800
0014202000
0014218000
0020220000
001AA80000
0000140000
ENDCHAR
STARTCHAR Emacron
ENCODING 274
SWIDTH 490 0
DWIDTH 12 0
BBX 12 21 0 0
BITMAP
026980
010040
02AA80
000000
1A9958
202541
205102
205155
206A58
2A5000
205040
205590
204010
205050
296A80
205000
206954
208958
204405
505405
2A9968
ENDCHAR
STARTCHAR emacron
ENCODING 275
SWIDTH 490 0
DWIDTH 12 0
BBX 12 21 0 0
BITMAP
026980
010040
02AA80
000000
1A9958
202541
205102
205155
206A58
2A5000
205040
205590
204010
205050
296A80
205000
206954
208958
204405
505405
2A9968
ENDCHAR
STARTCHAR Ebreve
ENCODING 276
SWIDTH 490 0
DWIDTH 12 0
BBX 12 24 0 0
BITMAP
029190
041214
052220
022AA0
026090
01AA80
000000
1A9958
202541
205102
205155
206A58
2A5000
205040
205590
204010
205050
296A80
205000
206954
208958
204405
505405
2A9968
ENDCHAR
STARTCHAR ebreve
ENCODING 277
SWIDTH 490 0
DWIDTH 12 0
BBX 12 24 0 0
BITMAP
029190
041214
052220
022AA0
026090
01AA80
000000
1A9958
202541
205102
205155
206A58
2A5000
205040
205590
204010
205050
296A80
205000
206954
208958
204405
505405
2A9968
ENDCHAR
STARTCHAR Edotaccent
ENCODING 278
SWIDTH 490 0
DWIDTH 12 0
BBX 12 22 0 0
BITMAP
006900
008200
008200
006900
000000
1A9958
202541
205102
205155
206A58
2A5000
205040
205590
204010
205050
296A80
205000
206954
208958
204405
505405
2A9968
ENDCHAR
STARTCHAR edotaccent
ENCODING 279
SWIDTH 490 0
DWIDTH 12 0
BBX 12 22 0 0
BITMAP
006900
008200
008200
006900
000000
1A9958
202541
205102
205155
206A58
2A5000
205040
205590
204010
205050
296A80
205000
206954
208958
204405
505405
2A9968
ENDCHAR
STARTCHAR Eogonek
ENCODING 280
SWIDTH 490 0
DWIDTH 12 0
BBX 12 22 0 -5
BITMAP
1A9958
202541
205102
205155
206A58
2A5000
205040
205590
204010
205050
296A80
205000
206954
208958
204405
505405
2A9A68
000410
0008A0
000749
000185
000028
ENDCHAR
STARTCHAR eogonek
ENCODING 281
SWIDTH 490 0
DWIDTH 12 0
BBX 12 22 0 -5
BITMAP
1A9958
202541
205102
205155
206A58
2A5000
205040
205590
204010
205050
296A80
205000
206954
208958
204405
505405
2A9A68
000410
0008A0
000749
000185
000028
ENDCHAR
STARTCHAR Ecaron
ENCODING 282
SWIDTH 490 0
DWIDTH 12 0
BBX 12 23 0 0
BITMAP
026260
021510
014860
008580
004340
002A00
1A9958
202541
205102
205155
206A58
2A5000
205040
205590
204010
205050
296A80
205000
206954
208958
204405
505405
2A9968
ENDCHAR
STARTCHAR ecaron
ENCODING 283
SWIDTH 490 0
DWIDTH 12 0
BBX 12 23 0 0
BITMAP
026260
021510
014860
008580
004340
002A00
1A9958
202541
205102
205155
206A58
2A5000
205040
205590
204010
205050
296A80
205000
206954
208958
204405
505405
2A9968
ENDCHAR
STARTCHAR Gcircumflex
ENCODING 284
SWIDTH 557 0
DWIDTH 13 0
BBX 13 24 0 -1
BITMAP
001A8000
0020D000
00522000
00861400
01494800
00A0A400
0AAA4000
08026A00
04020140
09510100
096AAA00
19600000
14600000
14202A40
10508080
20505040
2A505040
20506980
20859080
50A65080
80821080
2A415080
15AA6A40
05000000
ENDCHAR
STARTCHAR gcircumflex
ENCODING 285
SWIDTH 557 0
DWIDTH 13 0
BBX 13 24 0 -1
BITMAP
001A8000
0020D000
00522000
00861400
01494800
00A0A400
0AAA4000
08026A00
04020140
09510100
096AAA00
19600000
14600000
14202A40
10508080
20505040
2A505040
20506980
20859080
50A65080
80821080
2A415080
15AA6A40
05000000
ENDCHAR
STARTCHAR Gbreve
ENCODING 286
SWIDTH 557 0
DWIDTH 13 0
BBX 13 24 0 -1
BITMAP
01A06400
02148800
01144800
014AA400
00943000
006A9000
0AAA4000
08026A00
04020140
09510100
096AAA00
19600000
14600000
14202A40
10508080
20505040
2A505040
20506980
20859080
50A65080
80821080
2A415080
15AA6A40
05000000
ENDCHAR
STARTCHAR gbreve
ENCODING 287
SWIDTH 557 0
DWIDTH 13 0
BBX 13 24 0 -1
BITMAP
01A06400
02148800
01144800
014AA400
00943000
006A9000
0AAA4000
08026A00
04020140
09510100
096AAA00
19600000
14600000
14202A40
10508080
20505040
2A505040
20506980
20859080
50A65080
80821080
2A415080
15AA6A40
05000000
ENDCHAR
STARTCHAR Gdotaccent
ENCODING 288
SWIDTH 557 0
DWIDTH 13 0
BBX 13 23 0 -1
BITMAP
00068000
00145000
00048000
000A8000
00000000
0AAA4000
08026A00
04020140
09510100
096AAA00
19600000
14600000
14202A40
10508080
20505040
2A505040
20506980
20859080
50A65080
80821080
2A415080
15AA6A40
05000000
ENDCHAR
STARTCHAR gdotaccent
ENCODING 289
SWIDTH 557 0
DWIDTH 13 0
BBX 13 23 0 -1
BITMAP
00068000
00145000
00048000
000A8000
00000000
0AAA4000
08026A00
04020140
09510100
096AAA00
19600000
14600000
14202A40
10508080
20505040
2A505040
20506980
20859080
50A65080
80821080
2A415080
15AA6A40
05000000
ENDCHAR
STARTCHAR Gcommaaccent
ENCODING 290
SWIDTH 557 0
DWIDTH 13 0
BBX 13 23 0 -6
BITMAP
0AAA4000
08026A00
04020140
09510100
096AAA00
19600000
14600000
14202A40
10508080
20505040
2A505040
20506980
20859080
50A65080
80821080
2A415080
15AA6A40
05000000
001A0000
00214000
00520000
01480000
00A40000
ENDCHAR
STARTCHAR gcommaaccent
ENCODING 291
SWIDTH 557 0
DWIDTH 13 0
BBX 13 23 0 -6
BITMAP
0AAA4000
08026A00
04020140
09510100
096AAA00
19600000
14600000
14202A40
10508080
20505040
2A505040
20506980
20859080
50A65080
80821080
2A415080
15AA6A40
05000000
001A0000
00214000
00520000
01480000
00A40000
ENDCHAR
STARTCHAR Hcircumflex
ENCODING 292
SWIDTH 611 0
DWIDTH 15 0
BBX 15 23 0 0
BITMAP
000A8000
0020D000
00522000
00861800
01494800
00A4A400
1A802A80
20205050
20502040
20502080
20502080
2A502540
20506080
20502080
204021A0
20506908
29790408
20580564
20456980
20A95080
20505080
50508040
2A802A40
ENDCHAR
STARTCHAR hcircumflex
ENCODING 293
SWIDTH 611 0
DWIDTH 15 0
BBX 15 23 0 0
BITMAP
000A8000
0020D000
00522000
00861800
01494800
00A4A400
1A802A80
20205050
20502040
20502080
20502080
2A502540
20506080
20502080
204021A0
20506908
29790408
20580564
20456980
20A95080
20505080
50508040
2A802A40
ENDCHAR
STARTCHAR Hbar
ENCODING 294
SWIDTH 706 0
DWIDTH 17 0
BBX 17 17 0 0
BITMAP
02A406A400
0508080800
0508080800
290EAAAA40
550C020080
5698020080
2809A9A580
0508091500
0508046900
05081A4200
069B520200
0409011600
05091A5400
050A981400
0808080400
0808080800
06A406A000
ENDCHAR
STARTCHAR hbar
ENCODING 295
SWIDTH 706 0
DWIDTH 17 0
BBX 17 17 0 0
BITMAP
02A406A400
0508080800
0508080800
290EAAAA40
550C020080
5698020080
2809A9A580
0508091500
0508046900
05081A4200
069B520200
0409011600
05091A5400
050A981400
0808080400
0808080800
06A406A000
ENDCHAR
STARTCHAR Itilde
ENCODING 296
SWIDTH 266 0
DWIDTH 6 0
BBX 10 23 -1 0
BITMAP
0A8690
109820
216480
860540
488600
646900
06A000
080800
081400
081400
081400
0A9400
081400
081000
081000
081400
0A5400
081400
081000
082000
081000
141400
0AA000
ENDCHAR
STARTCHAR itilde
ENCODING 297
SWIDTH 266 0
DWIDTH 6 0
BBX 10 23 -1 0
BITMAP
0A8690
109820
216480
860540
488600
646900
06A000
080800
081400
081400
081400
0A9400
081400
081000
081000
081400
0A5400
081400
081000
082000
081000
141400
0AA000
ENDCHAR
STARTCHAR Imacron
ENCODING 298
SWIDTH 266 0
DWIDTH 6 0
BBX 7 20 0 0
BITMAP
5AA4
8004
6AA0
1A80
2020
2050
2050
2050
2A50
2050
2040
2040
2050
2950
2050
2040
2080
2040
5050
2A80
ENDCHAR
STARTCHAR imacron
ENCODING 299
SWIDTH 266 0
DWIDTH 6 0
BBX 7 20 0 0
BITMAP
5AA4
8004
6AA0
1A80
2020
2050
2050
2050
2A50
2050
2040
2040
2050
2950
2050
2040
2080
2040
5050
2A80
ENDCHAR
STARTCHAR Ibreve
ENCODING 300
SWIDTH 266 0
DWIDTH 6 0
BBX 9 24 -1 0
BITMAP
191900
522140
122100
22AA00
260A00
0AA800
000000
06A000
080800
081400
081400
081400
0A9400
081400
081000
081000
081400
0A5400
081400
081000
082000
081000
141400
0AA000
ENDCHAR
STARTCHAR ibreve
ENCODING 301
SWIDTH 266 0
DWIDTH 6 0
BBX 9 24 -1 0
BITMAP
191900
522140
122100
22AA00
260A00
0AA800
000000
06A000
080800
081400
081400
081400
0A9400
081400
081000
081000
081400
0A5400
081400
081000
082000
081000
141400
0AA000
ENDCHAR
STARTCHAR Iogonek
ENCODING 302
SWIDTH 266 0
DWIDTH 6 0
BBX 6 23 0 -6
BITMAP
1A80
2020
2050
2050
2050
2A50
2050
2040
2040
2050
2950
2050
2040
2080
2040
5050
2A80
2200
5200
5A40
2460
0550
0140
ENDCHAR
STARTCHAR iogonek
ENCODING 303
SWIDTH 266 0
DWIDTH 6 0
BBX 6 23 0 -6
BITMAP
1A80
2020
2050
2050
2050
2A50
2050
2040
2040
2050
2950
2050
2040
2080
2040
5050
2A80
2200
5200
5A40
2460
0550
0140
ENDCHAR
STARTCHAR Idotaccent
ENCODING 304
SWIDTH 266 0
DWIDTH 6 0
BBX 6 22 0 0
BITMAP
0A40
2080
1480
1A40
0000
1A80
2020
2050
2050
2050
2A50
2050
2040
2040
2050
2950
2050
2040
2080
2040
5050
2A80
ENDCHAR
STARTCHAR dotlessi
ENCODING 305
SWIDTH 266 0
DWIDTH 6 0
BBX 6 17 0 0
BITMAP
1A80
2020
2050
2050
2050
2A50
2050
2040
2040
2050
2950
2050
2040
2080
2040
5050
2A80
ENDCHAR
STARTCHAR IJ
ENCODING 306
SWIDTH 750 0
DWIDTH 18 0
BBX 18 18 0 -1
BITMAP
1A80001A40
2020002050
2050002080
2050002080
2050002080
2A50006980
2050005080
2040002080
2041902080
2055202080
2958086980
2055025080
2041499080
2080A06080
2040601480
5050080880
2A80052A80
0000029000
ENDCHAR
STARTCHAR ij
ENCODING 307
SWIDTH 749 0
DWIDTH 18 0
BBX 18 18 0 -1
BITMAP
1A80001A40
2020002050
2050002080
2050002080
2050002080
2A50006980
2050005080
2040002080
2041902080
2055202080
2958086980
2055025080
2041499080
2080A06080
2040601480
5050080880
2A80052A80
0000029000
ENDCHAR
STARTCHAR Jcircumflex
ENCODING 308
SWIDTH 484 0
DWIDTH 12 0
BBX 14 24 -1 -1
BITMAP
0000A800
00014900
00021600
00082080
00088850
00064680
0000A900
00014200
00014200
00014200
00014200
0002A600
00020200
00010100
0A014500
20810100
5052A600
24160200
085A0500
02424500
01409100
00505200
0020A900
001A0000
ENDCHAR
STARTCHAR jcircumflex
ENCODING 309
SWIDTH 482 0
DWIDTH 12 0
BBX 14 24 -1 -1
BITMAP
0000A800
00014900
00021600
00082080
00088850
00064680
0000A900
00014200
00014200
00014200
00014200
0002A600
00020200
00010100
0A014500
20810100
5052A600
24160200
085A0500
02424500
01409100
00505200
0020A900
001A0000
ENDCHAR
STARTCHAR Kcommaaccent
ENCODING 310
SWIDTH 541 0
DWIDTH 13 0
BBX 14 23 0 -6
BITMAP
1A800400
20201640
20505080
20518090
20560240
2A598500
20641800
20502000
20409000
20622000
29651400
20695800
20660400
20820200
20414140
50508140
2A809900
00000000
00250000
00120000
00850000
02040000
01A00000
ENDCHAR
STARTCHAR kcommaaccent
ENCODING 311
SWIDTH 541 0
DWIDTH 13 0
BBX 14 23 0 -6
BITMAP
1A800400
20201640
20505080
20518090
20560240
2A598500
20641800
20502000
20409000
20622000
29651400
20695800
20660400
20820200
20414140
50508140
2A809900
00000000
00250000
00120000
00850000
02040000
01A00000
ENDCHAR
STARTCHAR kgreenlandic
ENCODING 312
SWIDTH 541 0
DWIDTH 13 0
BBX 14 17 0 0
BITMAP
1A800400
20201640
20505080
20518090
20560240
2A598500
20641800
20502000
20409000
20622000
29651400
20695800
20660400
20820200
20414140
50508140
2A809900
ENDCHAR
STARTCHAR Lacute
ENCODING 313
SWIDTH 467 0
DWIDTH 11 0
BBX 12 22 0 0
BITMAP
002900
005200
004800
021400
019000
1A8000
202000
205000
205000
205000
2A5000
205000
204000
204000
205000
295000
205000
206504
209955
205402
506402
2AAAA8
ENDCHAR
STARTCHAR lacute
ENCODING 314
SWIDTH 467 0
DWIDTH 11 0
BBX 12 22 0 0
BITMAP
002900
005200
004800
021400
019000
1A8000
202000
205000
205000
205000
2A5000
205000
204000
204000
205000
295000
205000
206504
209955
205402
506402
2AAAA8
ENDCHAR
STARTCHAR Lcommaaccent
ENCODING 315
SWIDTH 467 0
DWIDTH 11 0
BBX 12 23 0 -6
BITMAP
1A8000
202000
205000
205000
205000
2A5000
205000
204000
204000
205000
295000
205000
206504
209955
205402
506402
2AAAA8
000000
005800
008400
021400
052000
028000
ENDCHAR
STARTCHAR lcommaaccent
ENCODING 316
SWIDTH 467 0
DWIDTH 11 0
BBX 12 23 0 -6
BITMAP
1A8000
202000
205000
205000
205000
2A5000
205000
204000
204000
205000
295000
205000
206504
209955
205402
506402
2AAAA8
000000
005800
008400
021400
052000
028000
ENDCHAR
STARTCHAR Lcaron
ENCODING 317
SWIDTH 467 0
DWIDTH 11 0
BBX 12 19 0 0
BITMAP
0000A0
000148
1A8214
202810
205980
205100
205000
2A5000
205000
204000
204000
205000
295000
205000
206504
209955
205402
506402
2AAAA8
ENDCHAR
STARTCHAR lcaron
ENCODING 318
SWIDTH 467 0
DWIDTH 11 0
BBX 12 19 0 0
BITMAP
0000A0
000148
1A8214
202810
205980
205100
205000
2A5000
205000
204000
204000
205000
295000
205000
206504
209955
205402
506402
2AAAA8
ENDCHAR
STARTCHAR Ldot
ENCODING 319
SWIDTH 611 0
DWIDTH 15 0
BBX 14 17 0 0
BITMAP
1A800000
20200000
20500000
20500000
20500000
2A500000
20500690
20400820
20400820
20500560
29500000
20500000
20650400
20995500
20540200
50640200
2AAAA800
ENDCHAR
STARTCHAR ldotaccent
ENCODING 320
SWIDTH 611 0
DWIDTH 15 0
BBX 14 17 0 0
BITMAP
1A800000
20200000
20500000
20500000
20500000
2A500000
20500690
20400820
20400820
20500560
29500000
20500000
20650400
20995500
20540200
50640200
2AAAA800
ENDCHAR
STARTCHAR Lslash
ENCODING 321
SWIDTH 505 0
DWIDTH 12 0
BBX 14 17 -1 0
BITMAP
01A80000
02050000
02050000
02040000
02040000
02950000
02069000
2A082000
52082000
52069000
26950000
06050000
02095540
02099480
02088050
05054480
02AA9540
ENDCHAR
STARTCHAR lslash
ENCODING 322
SWIDTH 505 0
DWIDTH 12 0
BBX 14 17 -1 0
BITMAP
01A80000
02050000
02050000
02040000
02040000
02950000
02069000
2A082000
52082000
52069000
26950000
06050000
02095540
02099480
02088050
05054480
02AA9540
ENDCHAR
STARTCHAR Nacute
ENCODING 323
SWIDTH 598 0
DWIDTH 14 0
BBX 14 22 0 0
BITMAP
00009400
00014800
00021400
00085000
00068000
1A901A80
20242020
20582050
20582050
20522050
2A666A50
20616050
2050A050
20607040
20602050
29699950
20580850
20450840
20820280
20414180
50514650
2A80AE80
ENDCHAR
STARTCHAR nacute
ENCODING 324
SWIDTH 598 0
DWIDTH 14 0
BBX 14 22 0 0
BITMAP
00009400
00014800
00021400
00085000
00068000
1A901A80
20242020
20582050
20582050
20522050
2A666A50
20616050
2050A050
20607040
20602050
29699950
20580850
20450840
20820280
20414180
50514650
2A80AE80
ENDCHAR
STARTCHAR Ncommaaccent
ENCODING 325
SWIDTH 598 0
DWIDTH 14 0
BBX 14 23 0 -6
BITMAP
1A901A80
20242020
20582050
20582050
20522050
2A666A50
20616050
2050A050
20607040
20602050
29699950
20580850
20450840
20820280
20414180
50514650
2A80AE80
00000000
000A4000
00108000
00520000
00850000
00640000
ENDCHAR
STARTCHAR ncommaaccent
ENCODING 326
SWIDTH 598 0
DWIDTH 14 0
BBX 14 23 0 -6
BITMAP
1A901A80
20242020
20582050
20582050
20522050
2A666A50
20616050
2050A050
20607040
20602050
29699950
20580850
20450840
20820280
20414180
50514650
2A80AE80
00000000
000A4000
00108000
00520000
00850000
00640000
ENDCHAR
STARTCHAR Ncaron
ENCODING 327
SWIDTH 598 0
DWIDTH 14 0
BBX 14 23 0 0
BITMAP
00989800
00854400
00521800
00216000
0010D000
000A8000
1A901A80
20242020
20582050
20582050
20522050
2A666A50
20616050
2050A050
20607040
20602050
29699950
20580850
20450840
20820280
20414180
50514650
2A80AE80
ENDCHAR
STARTCHAR ncaron
ENCODING 328
SWIDTH 598 0
DWIDTH 14 0
BBX 14 23 0 0
BITMAP
00989800
00854400
00521800
00216000
0010D000
000A8000
1A901A80
20242020
20582050
20582050
20522050
2A666A50
20616050
2050A050
20607040
20602050
29699950
20580850
20450840
20820280
20414180
50514650
2A80AE80
ENDCHAR
STARTCHAR napostrophe
ENCODING 329
SWIDTH 807 0
DWIDTH 19 0
BBX 19 17 0 0
BITMAP
0A06A406A0
1488090808
2148160814
8508160814
9808148814
100A995A94
0008185814
0008142814
0008181C10
0008180814
000A5A6654
0008164214
0008114210
00082080A0
0008145060
0014141194
000AA01BA0
ENDCHAR
STARTCHAR Eng
ENCODING 330
SWIDTH 595 0
DWIDTH 14 0
BBX 14 23 0 -6
BITMAP
1A900500
20242590
20582010
20582050
20522040
29662050
20616550
2050A550
20606050
20602080
29699480
20580850
20450950
20820250
20414180
50514680
2A806480
00002950
005B9250
05520180
08010600
05059500
02650000
ENDCHAR
STARTCHAR eng
ENCODING 331
SWIDTH 595 0
DWIDTH 14 0
BBX 14 23 0 -6
BITMAP
1A900500
20242590
20582010
20582050
20522040
29662050
20616550
2050A550
20606050
20602080
29699480
20580850
20450950
20820250
20414180
50514680
2A806480
00002950
005B9250
05520180
08010600
05059500
02650000
ENDCHAR
STARTCHAR Omacron
ENCODING 332
SWIDTH 612 0
DWIDTH 15 0
BBX 14 21 0 -1
BITMAP
006A9400
00400800
006AA400
0AAA4500
08026A80
04020180
09510180
096AAA80
19602550
14602550
14202050
10502050
20501020
2A502960
20501420
20856AA0
50A65060
80820060
2A4115A0
15AA9640
05000000
ENDCHAR
STARTCHAR omacron
ENCODING 333
SWIDTH 612 0
DWIDTH 15 0
BBX 14 21 0 -1
BITMAP
006A9400
00400800
006AA400
0AAA4500
08026A80
04020180
09510180
096AAA80
19602550
14602550
14202050
10502050
20501020
2A502960
20501420
20856AA0
50A65060
80820060
2A4115A0
15AA9640
05000000
ENDCHAR
STARTCHAR Obreve
ENCODING 334
SWIDTH 612 0
DWIDTH 15 0
BBX 14 24 0 -1
BITMAP
00642400
01484500
00888500
008AA800
00981800
002AA000
0AAA4500
08026A80
04020180
09510180
096AAA80
19602550
14602550
14202050
10502050
20501020
2A502960
20501420
20856AA0
50A65060
80820060
2A4115A0
15AA9640
05000000
ENDCHAR
STARTCHAR obreve
ENCODING 335
SWIDTH 612 0
DWIDTH 15 0
BBX 14 24 0 -1
BITMAP
00642400
01484500
00888500
008AA800
00981800
002AA000
0AAA4500
08026A80
04020180
09510180
096AAA80
19602550
14602550
14202050
10502050
20501020
2A502960
20501420
20856AA0
50A65060
80820060
2A4115A0
15AA9640
05000000
ENDCHAR
STARTCHAR Ohungarumlaut
ENCODING 336
SWIDTH 612 0
DWIDTH 15 0
BBX 14 24 0 -1
BITMAP
00068580
00081850
0014A180
00225200
00292800
00000000
0AAA4500
08026A80
04020180
09510180
096AAA80
19602550
14602550
14202050
10502050
20501020
2A502960
20501420
20856AA0
50A65060
80820060
2A4115A0
15AA9640
05000000
ENDCHAR
STARTCHAR ohungarumlaut
ENCODING 337
SWIDTH 612 0
DWIDTH 15 0
BBX 14 24 0 -1
BITMAP
00068580
00081850
0014A180
00225200
00292800
00000000
0AAA4500
08026A80
04020180
09510180
096AAA80
19602550
14602550
14202050
10502050
20501020
2A502960
20501420
20856AA0
50A65060
80820060
2A4115A0
15AA9640
05000000
ENDCHAR
STARTCHAR OE
ENCODING 338
SWIDTH 831 0
DWIDTH 20 0
BBX 20 18 0 -1
BITMAP
0AAA5A9959
08026A2652
0402016202
0951015152
096AAA6A54
19602A6000
1460202040
1420206550
1050205020
2050205020
2A50296A80
2050205000
2085696954
50A6425555
8082025501
2A41162445
15AA6A9968
0500000000
ENDCHAR
STARTCHAR oe
ENCODING 339
SWIDTH 831 0
DWIDTH 20 0
BBX 20 18 0 -1
BITMAP
0AAA5A9959
08026A2652
0402016202
0951015152
096AAA6A54
19602A6000
1460202040
1420206550
1050205020
2050205020
2A50296A80
2050205000
2085696954
50A6425555
8082025501
2A41162445
15AA6A9968
0500000000
ENDCHAR
STARTCHAR Racute
ENCODING 340
SWIDTH 532 0
DWIDTH 13 0
BBX 12 23 1 -1
BITMAP
000680
000810
001480
002200
052900
198000
A01A00
A00594
A90816
829402
915A45
954568
816408
81AAA0
815080
816050
95A460
818A54
820908
820202
414142
824098
140010
ENDCHAR
STARTCHAR racute
ENCODING 341
SWIDTH 532 0
DWIDTH 13 0
BBX 12 23 1 -1
BITMAP
000680
000810
001480
002200
052900
198000
A01A00
A00594
A90816
829402
915A45
954568
816408
81AAA0
815080
816050
95A460
818A54
820908
820202
414142
824098
140010
ENDCHAR
STARTCHAR Rcommaaccent
ENCODING 342
SWIDTH 532 0
DWIDTH 13 0
BBX 12 24 1 -6
BITMAP
050000
198000
A01A00
A00594
A90816
829402
915A45
954568
816408
81AAA0
815080
816050
95A460
818A54
820908
820202
414142
824098
140010
009400
014800
021400
085000
068000
ENDCHAR
STARTCHAR rcommaaccent
ENCODING 343
SWIDTH 532 0
DWIDTH 13 0
BBX 12 24 1 -6
BITMAP
050000
198000
A01A00
A00594
A90816
829402
915A45
954568
816408
81AAA0
815080
816050
95A460
818A54
820908
820202
414142
824098
140010
009400
014800
021400
085000
068000
ENDCHAR
STARTCHAR Rcaron
ENCODING 344
SWIDTH 532 0
DWIDTH 13 0
BBX 12 25 1 -1
BITMAP
098580
085850
052080
021600
014900
00A800
050000
198000
A01A00
A00594
A90816
829402
915A45
954568
816408
81AAA0
815080
816050
95A460
818A54
820908
820202
414142
824098
140010
ENDCHAR
STARTCHAR rcaron
ENCODING 345
SWIDTH 532 0
DWIDTH 13 0
BBX 12 25 1 -1
BITMAP
098580
085850
052080
021600
014900
00A800
050000
198000
A01A00
A00594
A90816
829402
915A45
954568
816408
81AAA0
815080
816050
95A460
818A54
820908
820202
414142
824098
140010
ENDCHAR
STARTCHAR Sacute
ENCODING 346
SWIDTH 442 0
DWIDTH 11 0
BBX 11 24 0 -1
BITMAP
000A00
002080
005200
008800
00A400
000000
056AA0
2A2014
655014
8096A0
509000
142000
089400
0A0800
060500
014140
008580
006080
006020
6A9818
805814
801AA0
56A540
100000
ENDCHAR
STARTCHAR sacute
ENCODING 347
SWIDTH 442 0
DWIDTH 11 0
BBX 11 24 0 -1
BITMAP
000A00
002080
005200
008800
00A400
000000
056AA0
2A2014
655014
8096A0
509000
142000
089400
0A0800
060500
014140
008580
006080
006020
6A9818
805814
801AA0
56A540
100000
ENDCHAR
STARTCHAR Scircumflex
ENCODING 348
SWIDTH 442 0
DWIDTH 11 0
BBX 11 25 0 -1
BITMAP
00A800
020D00
051600
086180
148480
064A40
000000
056AA0
2A2014
655014
8096A0
509000
142000
089400
0A0800
060500
014140
008580
006080
006020
6A9818
805814
801AA0
56A540
100000
ENDCHAR
STARTCHAR scircumflex
ENCODING 349
SWIDTH 442 0
DWIDTH 11 0
BBX 11 25 0 -1
BITMAP
00A800
020D00
051600
086180
148480
064A40
000000
056AA0
2A2014
655014
8096A0
509000
142000
089400
0A0800
060500
014140
008580
006080
006020
6A9818
805814
801AA0
56A540
100000
ENDCHAR
STARTCHAR Scedilla
ENCODING 350
SWIDTH 442 0
DWIDTH 11 0
BBX 11 22 0 -5
BITMAP
056AA0
2A2014
655014
8096A0
509000
142000
089400
0A0800
060500
014140
008580
006080
006020
6A9818
805814
801AA0
56A640
102200
005200
096A00
081800
064000
ENDCHAR
STARTCHAR scedilla
ENCODING 351
SWIDTH 442 0
DWIDTH 11 0
BBX 11 22 0 -5
BITMAP
056AA0
2A2014
655014
8096A0
509000
142000
089400
0A0800
060500
014140
008580
006080
006020
6A9818
805814
801AA0
56A640
102200
005200
096A00
081800
064000
ENDCHAR
STARTCHAR Scaron
ENCODING 352
SWIDTH 442 0
DWIDTH 11 0
BBX 11 25 0 -1
BITMAP
094940
145480
086140
011600
021C00
01A400
000000
056AA0
2A2014
655014
8096A0
509000
142000
089400
0A0800
060500
014140
008580
006080
006020
6A9818
805814
801AA0
56A540
100000
ENDCHAR
STARTCHAR scaron
ENCODING 353
SWIDTH 442 0
DWIDTH 11 0
BBX 11 25 0 -1
BITMAP
094940
145480
086140
011600
021C00
01A400
000000
056AA0
2A2014
655014
8096A0
509000
142000
089400
0A0800
060500
014140
008580
006080
006020
6A9818
805814
801AA0
56A540
100000
ENDCHAR
STARTCHAR Tcommaaccent
ENCODING 354
SWIDTH 453 0
DWIDTH 11 0
BBX 11 23 0 -6
BITMAP
6AAAA4
801008
401008
955658
155510
010200
02A600
020200
010500
010100
024200
025600
020100
020500
020500
020200
01A900
000000
01A000
021400
052000
148000
0A4000
ENDCHAR
STARTCHAR tcommaaccent
ENCODING 355
SWIDTH 453 0
DWIDTH 11 0
BBX 11 23 0 -6
BITMAP
6AAAA4
801008
401008
955658
155510
010200
02A600
020200
010500
010100
024200
025600
020100
020500
020500
020200
01A900
000000
01A000
021400
052000
148000
0A4000
ENDCHAR
STARTCHAR Tcaron
ENCODING 356
SWIDTH 453 0
DWIDTH 11 0
BBX 11 24 0 0
BITMAP
098580
085850
052480
020600
014900
00A800
000000
6AAAA4
801008
401008
955658
155510
010200
02A600
020200
010500
010100
024200
025600
020100
020500
020500
020200
01A900
ENDCHAR
STARTCHAR tcaron
ENCODING 357
SWIDTH 453 0
DWIDTH 11 0
BBX 11 24 0 0
BITMAP
098580
085850
052480
020600
014900
00A800
000000
6AAAA4
801008
401008
955658
155510
010200
02A600
020200
010500
010100
024200
025600
020100
020500
020500
020200
01A900
ENDCHAR
STARTCHAR Tbar
ENCODING 358
SWIDTH 455 0
DWIDTH 11 0
BBX 11 18 0 -1
BITMAP
65A564
801548
401008
811548
65A654
014200
02A600
060200
256A90
200020
200010
1AAA80
020200
010500
020500
020200
025500
005000
ENDCHAR
STARTCHAR tbar
ENCODING 359
SWIDTH 455 0
DWIDTH 11 0
BBX 11 18 0 -1
BITMAP
65A564
801548
401008
811548
65A654
014200
02A600
060200
256A90
200020
200010
1AAA80
020200
010500
020500
020200
025500
005000
ENDCHAR
STARTCHAR Utilde
ENCODING 360
SWIDTH 583 0
DWIDTH 14 0
BBX 14 24 0 -1
BITMAP
002A4A40
00119480
00826140
01492200
02120900
0191A800
0A902A40
14208080
04204040
14205040
14205080
2A60A980
20209080
20505080
20501080
20501080
2A506940
20802480
20856A80
50A90180
80810190
66815A50
156A6A80
06000000
ENDCHAR
STARTCHAR utilde
ENCODING 361
SWIDTH 583 0
DWIDTH 14 0
BBX 14 24 0 -1
BITMAP
002A4A40
00119480
00826140
01492200
02120900
0191A800
0A902A40
14208080
04204040
14205040
14205080
2A60A980
20209080
20505080
20501080
20501080
2A506940
20802480
20856A80
50A90180
80810190
66815A50
156A6A80
06000000
ENDCHAR
STARTCHAR Umacron
ENCODING 362
SWIDTH 583 0
DWIDTH 14 0
BBX 14 22 0 -1
BITMAP
005AA000
00801400
006AA000
00000000
0A902A40
14208080
04204040
14205040
14205080
2A60A980
20209080
20505080
20501080
20501080
2A506940
20802480
20856A80
50A90180
80810190
66815A50
156A6A80
06000000
ENDCHAR
STARTCHAR umacron
ENCODING 363
SWIDTH 583 0
DWIDTH 14 0
BBX 14 22 0 -1
BITMAP
005AA000
00801400
006AA000
00000000
0A902A40
14208080
04204040
14205040
14205080
2A60A980
20209080
20505080
20501080
20501080
2A506940
20802480
20856A80
50A90180
80810190
66815A50
156A6A80
06000000
ENDCHAR
STARTCHAR Ubreve
ENCODING 364
SWIDTH 583 0
DWIDTH 14 0
BBX 14 25 0 -1
BITMAP
01A06000
02108800
02114800
014AA400
01543000
006A9000
00000000
0A902A40
14208080
04204040
14205040
14205080
2A60A980
20209080
20505080
20501080
20501080
2A506940
20802480
20856A80
50A90180
80810190
66815A50
156A6A80
06000000
ENDCHAR
STARTCHAR ubreve
ENCODING 365
SWIDTH 583 0
DWIDTH 14 0
BBX 14 25 0 -1
BITMAP
01A06000
02108800
02114800
014AA400
01543000
006A9000
00000000
0A902A40
14208080
04204040
14205040
14205080
2A60A980
20209080
20505080
20501080
20501080
2A506940
20802480
20856A80
50A90180
80810190
66815A50
156A6A80
06000000
ENDCHAR
STARTCHAR Uring
ENCODING 366
SWIDTH 583 0
DWIDTH 14 0
BBX 14 25 0 -1
BITMAP
002A8000
00522000
00861000
02094800
00A5A400
00402000
006A9000
0A902A40
14208080
04204040
14205040
14205080
2A60A980
20209080
20505080
20501080
20501080
2A506940
20802480
20856A80
50A90180
80810190
66815A50
156A6A80
06000000
ENDCHAR
STARTCHAR uring
ENCODING 367
SWIDTH 583 0
DWIDTH 14 0
BBX 14 25 0 -1
BITMAP
002A8000
00522000
00861000
02094800
00A5A400
00402000
006A9000
0A902A40
14208080
04204040
14205040
14205080
2A60A980
20209080
20505080
20501080
20501080
2A506940
20802480
20856A80
50A90180
80810190
66815A50
156A6A80
06000000
ENDCHAR
STARTCHAR Uhungarumlaut
ENCODING 368
SWIDTH 583 0
DWIDTH 14 0
BBX 14 24 0 -1
BITMAP
000A5A00
0010A040
00525200
00858800
0064A400
00000000
0A902A40
14208080
04204040
14205040
14205080
2A60A980
20209080
20505080
20501080
20501080
2A506940
20802480
20856A80
50A90180
80810190
66815A50
156A6A80
06000000
ENDCHAR
STARTCHAR uhungarumlaut
ENCODING 369
SWIDTH 583 0
DWIDTH 14 0
BBX 14 24 0 -1
BITMAP
000A5A00
0010A040
00525200
00858800
0064A400
00000000
0A902A40
14208080
04204040
14205040
14205080
2A60A980
20209080
20505080
20501080
20501080
2A506940
20802480
20856A80
50A90180
80810190
66815A50
156A6A80
06000000
ENDCHAR
STARTCHAR Uogonek
ENCODING 370
SWIDTH 583 0
DWIDTH 14 0
BBX 14 23 0 -6
BITMAP
0A902A40
14208080
04204040
14205040
14205080
2A60A980
20209080
20505080
20501080
20501080
2A506940
20802480
20856A80
50A90180
80810190
66815A50
156A6A80
06002200
00004100
00005A40
00002450
00000950
00000140
ENDCHAR
STARTCHAR uogonek
ENCODING 371
SWIDTH 583 0
DWIDTH 14 0
BBX 14 23 0 -6
BITMAP
0A902A40
14208080
04204040
14205040
14205080
2A60A980
20209080
20505080
20501080
20501080
2A506940
20802480
20856A80
50A90180
80810190
66815A50
156A6A80
06002200
00004100
00005A40
00002450
00000950
00000140
ENDCHAR
STARTCHAR Wcircumflex
ENCODING 372
SWIDTH 735 0
DWIDTH 18 0
BBX 18 23 0 -1
BITMAP
0002A40000
0001280000
0008250000
0014920000
0021604000
041A1A0500
6640102580
8142582050
8142082080
5086045080
208A419080
2959A69540
2018828140
1424418200
0824514200
082A6A4200
0A60625600
0420920500
0220960800
0240990800
0280880800
026A465800
0050005000
ENDCHAR
STARTCHAR wcircumflex
ENCODING 373
SWIDTH 735 0
DWIDTH 18 0
BBX 18 23 0 -1
BITMAP
0002A40000
0001280000
0008250000
0014920000
0021604000
041A1A0500
6640102580
8142582050
8142082080
5086045080
208A419080
2959A69540
2018828140
1424418200
0824514200
082A6A4200
0A60625600
0420920500
0220960800
0240990800
0280880800
026A465800
0050005000
ENDCHAR
STARTCHAR Ycircumflex
ENCODING 374
SWIDTH 484 0
DWIDTH 12 0
BBX 13 23 -1 0
BITMAP
002A4000
00128000
00815000
02492000
02121400
0191A000
01001400
1A402640
50805080
50608080
14154200
085A9200
02461500
02450800
00881400
00242000
002A2000
00105000
00808000
01814000
02020000
01420000
00690000
ENDCHAR
STARTCHAR ycircumflex
ENCODING 375
SWIDTH 484 0
DWIDTH 12 0
BBX 13 23 -1 0
BITMAP
002A4000
00128000
00815000
02492000
02121400
0191A000
01001400
1A402640
50805080
50608080
14154200
085A9200
02461500
02450800
00881400
00242000
002A2000
00105000
00808000
01814000
02020000
01420000
00690000
ENDCHAR
STARTCHAR Ydieresis
ENCODING 376
SWIDTH 484 0
DWIDTH 12 0
BBX 13 21 -1 0
BITMAP
01A5A400
05060800
02160800
02A1A400
01001400
1A402640
50805080
50608080
14154200
085A9200
02461500
02450800
00881400
00242000
002A2000
00105000
00808000
01814000
02020000
01420000
00690000
ENDCHAR
STARTCHAR Zacute
ENCODING 377
SWIDTH 458 0
DWIDTH 11 0
BBX 11 22 0 0
BITMAP
000580
000840
002140
005200
002800
096550
212520
201018
205568
196564
007420
008580
008080
020200
050500
0A8800
141400
202450
80A560
805014
915120
1EA950
ENDCHAR
STARTCHAR zacute
ENCODING 378
SWIDTH 458 0
DWIDTH 11 0
BBX 11 22 0 0
BITMAP
000580
000840
002140
005200
002800
096550
212520
201018
205568
196564
007420
008580
008080
020200
050500
0A8800
141400
202450
80A560
805014
915120
1EA950
ENDCHAR
STARTCHAR Zdotaccent
ENCODING 379
SWIDTH 458 0
DWIDTH 11 0
BBX 11 22 0 0
BITMAP
006900
014100
008500
00A800
000000
096550
212520
201018
205568
196564
007420
008580
008080
020200
050500
0A8800
141400
202450
80A560
805014
915120
1EA950
ENDCHAR
STARTCHAR zdotaccent
ENCODING 380
SWIDTH 458 0
DWIDTH 11 0
BBX 11 22 0 0
BITMAP
006900
014100
008500
00A800
000000
096550
212520
201018
205568
196564
007420
008580
008080
020200
050500
0A8800
141400
202450
80A560
805014
915120
1EA950
ENDCHAR
STARTCHAR Zcaron
ENCODING 381
SWIDTH 458 0
DWIDTH 11 0
BBX 11 23 0 0
BITMAP
098580
085850
052080
021600
014900
00A800
096550
212520
201018
205568
196564
007420
008580
008080
020200
050500
0A8800
141400
202450
80A560
805014
915120
1EA950
ENDCHAR
STARTCHAR zcaron
ENCODING 382
SWIDTH 458 0
DWIDTH 11 0
BBX 11 23 0 0
BITMAP
098580
085850
052080
021600
014900
00A800
096550
212520
201018
205568
196564
007420
008580
008080
020200
050500
0A8800
141400
202450
80A560
805014
915120
1EA950
ENDCHAR
STARTCHAR AEacute
ENCODING 508
SWIDTH 797 0
DWIDTH 19 0
BBX 20 23 -1 0
BITMAP
000000A400
0000020800
0000052000
0000088000
00000A4000
0000000000
00000A9659
0002A42252
0001082202
0008082152
0018142A55
00343A6000
0056602040
0080942560
0081541020
0202142020
06966A6690
0818102000
0814542A54
2025601255
5050202102
2080202542
0A401A9568
ENDCHAR
STARTCHAR aeacute
ENCODING 509
SWIDTH 797 0
DWIDTH 19 0
BBX 20 23 -1 0
BITMAP
000000A400
0000020800
0000052000
0000088000
00000A4000
0000000000
00000A9659
0002A42252
0001082202
0008082152
0018142A55
00343A6000
0056602040
0080942560
0081541020
0202142020
06966A6690
0818102000
0814542A54
2025601255
5050202102
2080202542
0A401A9568
ENDCHAR
STARTCHAR Oslashacute
ENCODING 510
SWIDTH 612 0
DWIDTH 15 0
BBX 14 23 0 -1
BITMAP
00009800
00004400
00021400
00052000
00028000
0AAA4500
08026580
04022050
09515080
096A8180
19624250
14656550
14280850
10642050
20606020
2AA0A960
20995420
22026AA0
550A5060
88160060
202115A0
142A9640
0A800000
ENDCHAR
STARTCHAR oslashacute
ENCODING 511
SWIDTH 612 0
DWIDTH 15 0
BBX 14 23 0 -1
BITMAP
00009800
00004400
00021400
00052000
00028000
0AAA4500
08026580
04022050
09515080
096A8180
19624250
14656550
14280850
10642050
20606020
2AA0A960
20995420
22026AA0
550A5060
88160060
202115A0
142A9640
0A800000
ENDCHAR
STARTCHAR dotlessj
ENCODING 567
SWIDTH 482 0
DWIDTH 12 0
BBX 12 18 -1 -1
BITMAP
0000A9
000142
000142
000142
000142
0002A6
000202
000101
0A0145
208101
5052A6
241602
085A05
024245
014091
005052
0020A9
001A00
ENDCHAR
STARTCHAR circumflex
ENCODING 710
SWIDTH 308 0
DWIDTH 7 0
BBX 8 6 0 18
BITMAP
0A80
14A0
2150
8248
8485
6468
ENDCHAR
STARTCHAR caron
ENCODING 711
SWIDTH 310 0
DWIDTH 7 0
BBX 8 6 0 18
BITMAP
9858
8585
5208
2160
1490
0A80
ENDCHAR
STARTCHAR breve
ENCODING 728
SWIDTH 333 0
DWIDTH 8 0
BBX 8 6 0 18
BITMAP
6818
8412
8452
56A9
550C
1AA4
ENDCHAR
STARTCHAR dotaccent
ENCODING 729
SWIDTH 166 0
DWIDTH 4 0
BBX 4 4 0 18
BITMAP
69
82
42
69
ENDCHAR
STARTCHAR ring
ENCODING 730
SWIDTH 309 0
DWIDTH 7 0
BBX 8 7 0 18
BITMAP
0AA0
1094
5148
8585
6968
4018
2AA4
ENDCHAR
STARTCHAR ogonek
ENCODING 731
SWIDTH 226 0
DWIDTH 5 0
BBX 6 8 0 -6
BITMAP
1900
2200
1200
8500
9A40
2450
0840
0240
ENDCHAR
STARTCHAR tilde
ENCODING 732
SWIDTH 410 0
DWIDTH 10 0
BBX 10 6 0 18
BITMAP
0A8290
14A420
215850
824840
848600
646900
ENDCHAR
STARTCHAR hungarumlaut
ENCODING 733
SWIDTH 361 0
DWIDTH 9 0
BBX 9 5 0 18
BITMAP
0A4A00
10A080
525200
858800
64A400
ENDCHAR
STARTCHAR uni0312
ENCODING 786
SWIDTH 202 0
DWIDTH 5 0
BBX 5 6 0 11
BITMAP
0A00
1480
2140
8500
9800
1000
ENDCHAR
STARTCHAR uni0315
ENCODING 789
SWIDTH 202 0
DWIDTH 5 0
BBX 5 6 0 11
BITMAP
0A00
1480
2140
8500
9800
1000
ENDCHAR
STARTCHAR uni0326
ENCODING 806
SWIDTH 201 0
DWIDTH 5 0
BBX 5 5 0 -6
BITMAP
0A40
1480
1200
8500
6400
ENDCHAR
STARTCHAR Wgrave
ENCODING 7808
SWIDTH 735 0
DWIDTH 18 0
BBX 18 23 0 -1
BITMAP
0001400000
0009800000
0008500000
0005200000
0002200000
0401A00500
6640102580
8142582050
8142082080
5086045080
208A419080
2959A69540
2018828140
1424418200
0824514200
082A6A4200
0A60625600
0420920500
0220960800
0240990800
0280880800
026A465800
0050005000
ENDCHAR
STARTCHAR wgrave
ENCODING 7809
SWIDTH 735 0
DWIDTH 18 0
BBX 18 23 0 -1
BITMAP
0001400000
0009800000
0008500000
0005200000
0002200000
0401A00500
6640102580
8142582050
8142082080
5086045080
208A419080
2959A69540
2018828140
1424418200
0824514200
082A6A4200
0A60625600
0420920500
0220960800
0240990800
0280880800
026A465800
0050005000
ENDCHAR
STARTCHAR Wacute
ENCODING 7810
SWIDTH 735 0
DWIDTH 18 0
BBX 18 22 0 -1
BITMAP
00000A4000
0000208000
0000520000
0000880000
0400A40500
6640102580
8142582050
8142082080
5086045080
208A419080
2959A69540
2018828140
1424418200
0824514200
082A6A4200
0A60625600
0420920500
0220960800
0240990800
0280880800
026A465800
0050005000
ENDCHAR
STARTCHAR wacute
ENCODING 7811
SWIDTH 735 0
DWIDTH 18 0
BBX 18 22 0 -1
BITMAP
00000A4000
0000208000
0000520000
0000880000
0400A40500
6640102580
8142582050
8142082080
5086045080
208A419080
2959A69540
2018828140
1424418200
0824514200
082A6A4200
0A60625600
0420920500
0220960800
0240990800
0280880800
026A465800
0050005000
ENDCHAR
STARTCHAR Wdieresis
ENCODING 7812
SWIDTH 735 0
DWIDTH 18 0
BBX 18 21 0 -1
BITMAP
001A5A4000
0050608000
0021608000
042A1A4500
6640102580
8142582050
8142082080
5086045080
208A419080
2959A69540
2018828140
1424418200
0824514200
082A6A4200
0A60625600
0420920500
0220960800
0240990800
0280880800
026A465800
0050005000
ENDCHAR
STARTCHAR wdieresis
ENCODING 7813
SWIDTH 735 0
DWIDTH 18 0
BBX 18 21 0 -1
BITMAP
001A5A4000
0050608000
0021608000
042A1A4500
6640102580
8142582050
8142082080
5086045080
208A419080
2959A69540
2018828140
1424418200
0824514200
082A6A4200
0A60625600
0420920500
0220960800
0240990800
0280880800
026A465800
0050005000
ENDCHAR
STARTCHAR Ygrave
ENCODING 7922
SWIDTH 484 0
DWIDTH 12 0
BBX 13 23 -1 0
BITMAP
00140000
00980000
00850000
00520000
00220000
001A0000
01001400
1A402640
50805080
50608080
14154200
085A9200
02461500
02450800
00881400
00242000
002A2000
00105000
00808000
01814000
02020000
01420000
00690000
ENDCHAR
STARTCHAR ygrave
ENCODING 7923
SWIDTH 484 0
DWIDTH 12 0
BBX 13 23 -1 0
BITMAP
00140000
00980000
00850000
00520000
00220000
001A0000
01001400
1A402640
50805080
50608080
14154200
085A9200
02461500
02450800
00881400
00242000
002A2000
00105000
00808000
01814000
02020000
01420000
00690000
ENDCHAR
STARTCHAR endash
ENCODING 8211
SWIDTH 591 0
DWIDTH 14 0
BBX 14 5 0 6
BITMAP
14000000
26AAAA90
50202010
50101020
2AAAAA90
ENDCHAR
STARTCHAR emdash
ENCODING 8212
SWIDTH 726 0
DWIDTH 17 0
BBX 17 4 0 6
BITMAP
26AAAAAA40
5008020080
5004010080
2AAAAAAA40
ENDCHAR
STARTCHAR quoteleft
ENCODING 8216
SWIDTH 291 0
DWIDTH 7 0
BBX 7 10 0 8
BITMAP
0190
0514
0508
0814
1A20
2060
2040
8080
8040
6A40
ENDCHAR
STARTCHAR quoteright
ENCODING 8217
SWIDTH 291 0
DWIDTH 7 0
BBX 7 10 0 8
BITMAP
0190
0514
0508
0814
1A20
2060
2040
8080
8040
6A40
ENDCHAR
STARTCHAR quotesinglbase
ENCODING 8218
SWIDTH 228 0
DWIDTH 5 0
BBX 6 6 -1 -3
BITMAP
0690
0820
1420
5080
4140
2600
ENDCHAR
STARTCHAR quotedblleft
ENCODING 8220
SWIDTH 532 0
DWIDTH 13 0
BBX 13 10 0 8
BITMAP
01902900
05145240
05088080
08158200
1A229200
20620500
20450800
80880400
80481400
6A46A000
ENDCHAR
STARTCHAR quotedblright
ENCODING 8221
SWIDTH 532 0
DWIDTH 13 0
BBX 13 10 0 8
BITMAP
01902900
05145240
05088080
08158200
1A229200
20620500
20450800
80880400
80481400
6A46A000
ENDCHAR
STARTCHAR quotedblbase
ENCODING 8222
SWIDTH 448 0
DWIDTH 11 0
BBX 12 6 -1 -3
BITMAP
0690A8
082105
142509
509414
415410
260A80
ENDCHAR
STARTCHAR dagger
ENCODING 8224
SWIDTH 453 0
DWIDTH 11 0
BBX 11 20 0 -1
BITMAP
001000
019A00
010200
014200
2A4250
524254
825214
525614
2A02A0
010500
010500
020100
025200
025600
020500
020500
020500
020100
020200
01A900
ENDCHAR
STARTCHAR daggerdbl
ENCODING 8225
SWIDTH 462 0
DWIDTH 11 0
BBX 11 20 0 -1
BITMAP
001000
019A00
014200
014200
194250
514254
515204
525614
2A02A0
014200
014100
014200
169610
265664
514204
514114
2A02A0
020200
020200
01A900
ENDCHAR
STARTCHAR bullet
ENCODING 8226
SWIDTH 275 0
DWIDTH 7 0
BBX 4 4 1 7
BITMAP
29
41
52
66
ENDCHAR
STARTCHAR ellipsis
ENCODING 8230
SWIDTH 605 0
DWIDTH 15 0
BBX 14 5 0 -1
BITMAP
15054140
51648820
51108820
66158960
04050140
ENDCHAR
STARTCHAR perthousand
ENCODING 8240
SWIDTH 1249 0
DWIDTH 30 0
BBX 30 17 0 0
BITMAP
1554000000000000
2405055000000000
5206442000000000
5265441000000000
1111445000000000
1111544000000000
5661558000000000
5010508500010000
2016105555095600
0555116602554190
0000651159509650
0000461114544440
0000421110544440
0000451650559450
0001451460541410
0001442415580550
0000140556015640
ENDCHAR
STARTCHAR guilsinglleft
ENCODING 8249
SWIDTH 359 0
DWIDTH 9 0
BBX 8 11 0 3
BITMAP
0024
0086
0502
6405
5060
6180
5960
2409
0602
0085
0024
ENDCHAR
STARTCHAR guilsinglright
ENCODING 8250
SWIDTH 359 0
DWIDTH 9 0
BBX 8 11 0 3
BITMAP
0900
2180
5024
2406
0602
0182
062A
2405
1020
2180
0A00
ENDCHAR
STARTCHAR fraction
ENCODING 8260
SWIDTH 266 0
DWIDTH 6 0
BBX 7 16 0 0
BITMAP
0260
0114
0510
0410
0810
0950
0440
1440
1040
2440
1140
5100
4200
8100
9100
1400
ENDCHAR
STARTCHAR Euro
ENCODING 8364
SWIDTH 690 0
DWIDTH 17 0
BBX 16 18 0 -1
BITMAP
001AA900
002005A9
00200402
00254402
01656AA9
09795000
08215000
08208000
06A08000
66908000
40A98000
50408000
2A815568
00819902
01414802
00AA0455
0021AA44
00190000
ENDCHAR
STARTCHAR partialdiff
ENCODING 8706
SWIDTH 519 0
DWIDTH 12 0
BBX 14 18 -1 -1
BITMAP
0002A000
00182000
00081000
00081400
00050800
00056900
000A0500
00260500
01814200
06814200
64565A40
51988140
26248140
1C029080
09001050
01901050
00093A40
00018000
ENDCHAR
STARTCHAR minus
ENCODING 8722
SWIDTH 467 0
DWIDTH 11 0
BBX 11 5 0 5
BITMAP
26AAA0
500404
501404
269AA4
040000
ENDCHAR
STARTCHAR fi
ENCODING 64257
SWIDTH 741 0
DWIDTH 18 0
BBX 17 17 0 0
BITMAP
1A99582A40
2025415080
2051025080
2051551080
206A585080
2A5000A980
2050408080
2055905080
2040105080
2050505080
296A80A980
2050004080
2040005080
2080005040
2040008080
5050008080
2A80006A40
ENDCHAR
STARTCHAR fl
ENCODING 64258
SWIDTH 942 0
DWIDTH 23 0
BBX 23 17 0 0
BITMAP
1A99582A4000
202541508000
205102508000
205155108000
206A58508000
2A5000A98000
205040808000
205590508000
204010508000
205050508000
296A80A98000
205000408000
20400050A414
20800050A558
20400080A008
505000809008
2A80006AAAA4
ENDCHAR
STARTCHAR .notdef
ENCODING -1
SWIDTH 200 0
DWIDTH 5 0
BBX 1 1 0 0
BITMAP
00
ENDCHAR
STARTCHAR .null
ENCODING -1
SWIDTH 0 0
DWIDTH 0 0
BBX 1 1 0 0
BITMAP
00
ENDCHAR
STARTCHAR nonmarkingreturn
ENCODING -1
SWIDTH 200 0
DWIDTH 5 0
BBX 1 1 0 0
BITMAP
00
ENDCHAR
ENDFONT
